<?xml version="1.0" encoding="UTF-8" standalone="no"?>
<svg width="680px" height="200px" viewBox="0 0 680 200" version="1.1" xmlns="http://www.w3.org/2000/svg" xmlns:xlink="http://www.w3.org/1999/xlink">
    <!-- Generator: Sketch 40.3 (33839) - http://www.bohemiancoding.com/sketch -->
    <title>Group 13</title>
    <desc>Created with Sketch.</desc>
    <defs></defs>
    <g id="Sale-Page" stroke="none" stroke-width="1" fill="none" fill-rule="evenodd">
        <g id="Group-13">
            <g id="Group-9">
                <rect id="Rectangle-12" fill="#FFFFFF" x="0" y="0" width="680" height="200"></rect>
                <path d="M0,3 L3,0 L3,200 L0,197 L680,197 L677,200 L677,0 L680,3 L0,3 Z M680,0 L680,200 L0,200 L0,0 L680,0 Z" id="Rectangle-Copy-3" fill="#000000"></path>
            </g>
            <path d="M279.592,93.864 C280.445338,93.864 281.117331,93.6880018 281.608,93.336 C282.098669,92.9839982 282.344,92.4933365 282.344,91.864 L282.344,91.832 C282.344,91.223997 282.093336,90.7520017 281.592,90.416 C281.090664,90.0799983 280.349338,89.912 279.368,89.912 L275.832,89.912 L275.832,93.864 L279.592,93.864 Z M279.144,88.792 C279.912004,88.792 280.533331,88.6240017 281.008,88.288 C281.482669,87.9519983 281.72,87.4533366 281.72,86.792 L281.72,86.76 C281.72,86.2053306 281.506669,85.7626683 281.08,85.432 C280.653331,85.1013317 280.040004,84.936 279.24,84.936 L275.832,84.936 L275.832,88.792 L279.144,88.792 Z M274.584,83.8 L279.352,83.8 C279.992003,83.8 280.559998,83.8879991 281.056,84.064 C281.552002,84.2400009 281.959998,84.4826651 282.28,84.792 C282.760002,85.2933358 283,85.8906632 283,86.584 L283,86.616 C283,86.9786685 282.949334,87.3013319 282.848,87.584 C282.746666,87.8666681 282.610668,88.111999 282.44,88.32 C282.269332,88.528001 282.080001,88.7039993 281.872,88.848 C281.663999,88.9920007 281.448001,89.1119995 281.224,89.208 C281.554668,89.3040005 281.866665,89.4293326 282.16,89.584 C282.453335,89.7386674 282.706666,89.9226656 282.92,90.136 C283.133334,90.3493344 283.303999,90.6026652 283.432,90.896 C283.560001,91.1893348 283.624,91.5279981 283.624,91.912 L283.624,91.944 C283.624,92.4240024 283.528001,92.8533314 283.336,93.232 C283.143999,93.6106686 282.869335,93.9306654 282.512,94.192 C282.154665,94.4533346 281.725336,94.6533326 281.224,94.792 C280.722664,94.9306674 280.168003,95 279.56,95 L274.584,95 L274.584,83.8 Z M285.928,86.728 L287.16,86.728 L287.16,88.888 C287.309334,88.546665 287.495999,88.2320014 287.72,87.944 C287.944001,87.6559986 288.199999,87.408001 288.488,87.2 C288.776001,86.991999 289.090665,86.8346672 289.432,86.728 C289.773335,86.6213328 290.141331,86.5733333 290.536,86.584 L290.536,87.912 L290.44,87.912 C289.991998,87.912 289.568002,87.9919992 289.168,88.152 C288.767998,88.3120008 288.418668,88.5519984 288.12,88.872 C287.821332,89.1920016 287.586668,89.589331 287.416,90.064 C287.245332,90.538669 287.16,91.0853302 287.16,91.704 L287.16,95 L285.928,95 L285.928,86.728 Z M295.112,94.184 C295.496002,94.184 295.853332,94.1306672 296.184,94.024 C296.514668,93.9173328 296.805332,93.7653343 297.056,93.568 C297.306668,93.3706657 297.503999,93.1360014 297.648,92.864 C297.792001,92.5919986 297.864,92.2906683 297.864,91.96 L297.864,91.192 C297.554665,91.1066662 297.202669,91.026667 296.808,90.952 C296.413331,90.877333 295.960003,90.84 295.448,90.84 C294.679996,90.84 294.085335,90.9919985 293.664,91.296 C293.242665,91.6000015 293.032,92.0026642 293.032,92.504 L293.032,92.536 C293.032,92.7920013 293.087999,93.023999 293.2,93.232 C293.312001,93.440001 293.463999,93.6133326 293.656,93.752 C293.848001,93.8906674 294.069332,93.997333 294.32,94.072 C294.570668,94.146667 294.834665,94.184 295.112,94.184 L295.112,94.184 Z M294.872,95.176 C294.487998,95.176 294.109335,95.1226672 293.736,95.016 C293.362665,94.9093328 293.032001,94.7466678 292.744,94.528 C292.455999,94.3093322 292.224001,94.0400016 292.048,93.72 C291.871999,93.3999984 291.784,93.0266688 291.784,92.6 L291.784,92.568 C291.784,92.1199978 291.869332,91.7280017 292.04,91.392 C292.210668,91.0559983 292.453332,90.7760011 292.768,90.552 C293.082668,90.3279989 293.455998,90.1573339 293.888,90.04 C294.320002,89.9226661 294.797331,89.864 295.32,89.864 C295.853336,89.864 296.314665,89.8959997 296.704,89.96 C297.093335,90.0240003 297.474665,90.1093328 297.848,90.216 L297.848,89.96 C297.848,89.2239963 297.634669,88.6666686 297.208,88.288 C296.781331,87.9093314 296.178671,87.72 295.4,87.72 C294.909331,87.72 294.464002,87.7733328 294.064,87.88 C293.663998,87.9866672 293.272002,88.1306658 292.888,88.312 L292.52,87.304 C292.978669,87.0906656 293.442664,86.9200006 293.912,86.792 C294.381336,86.6639994 294.919997,86.6 295.528,86.6 C296.701339,86.6 297.591997,86.903997 298.2,87.512 C298.776003,88.0880029 299.064,88.8986614 299.064,89.944 L299.064,95 L297.848,95 L297.848,93.768 C297.559999,94.1413352 297.173336,94.4693319 296.688,94.752 C296.202664,95.0346681 295.597337,95.176 294.872,95.176 L294.872,95.176 Z M301.672,86.728 L302.904,86.728 L302.904,88.168 C303.181335,87.7199978 303.543998,87.3386682 303.992,87.024 C304.440002,86.7093318 305.02133,86.552 305.736,86.552 C306.237336,86.552 306.682665,86.6319992 307.072,86.792 C307.461335,86.9520008 307.791999,87.1786652 308.064,87.472 C308.336001,87.7653348 308.543999,88.1146646 308.688,88.52 C308.832001,88.9253354 308.904,89.3733309 308.904,89.864 L308.904,95 L307.672,95 L307.672,90.168 C307.672,89.3999962 307.474669,88.7920022 307.08,88.344 C306.685331,87.8959978 306.120004,87.672 305.384,87.672 C305.031998,87.672 304.704002,87.7333327 304.4,87.856 C304.095998,87.9786673 303.832001,88.1546655 303.608,88.384 C303.383999,88.6133345 303.210667,88.8879984 303.088,89.208 C302.965333,89.5280016 302.904,89.8799981 302.904,90.264 L302.904,95 L301.672,95 L301.672,86.728 Z M315.224,94.072 C315.608002,94.072 315.978665,93.9946674 316.336,93.84 C316.693335,93.6853326 317.013332,93.4666681 317.296,93.184 C317.578668,92.9013319 317.802666,92.5653353 317.968,92.176 C318.133334,91.7866647 318.216,91.3520024 318.216,90.872 L318.216,90.84 C318.216,90.3599976 318.133334,89.9253353 317.968,89.536 C317.802666,89.1466647 317.578668,88.8133347 317.296,88.536 C317.013332,88.2586653 316.693335,88.0426674 316.336,87.888 C315.978665,87.7333326 315.608002,87.656 315.224,87.656 C314.818665,87.656 314.440002,87.7279993 314.088,87.872 C313.735998,88.0160007 313.429335,88.2239986 313.168,88.496 C312.906665,88.7680014 312.698667,89.1013314 312.544,89.496 C312.389333,89.8906686 312.312,90.3386642 312.312,90.84 L312.312,90.872 C312.312,91.3626691 312.389333,91.8053314 312.544,92.2 C312.698667,92.5946686 312.909332,92.9306653 313.176,93.208 C313.442668,93.4853347 313.751998,93.6986659 314.104,93.848 C314.456002,93.9973341 314.829331,94.072 315.224,94.072 L315.224,94.072 Z M315,95.176 C314.498664,95.176 314.013336,95.080001 313.544,94.888 C313.074664,94.695999 312.653335,94.4160018 312.28,94.048 C311.906665,93.6799982 311.608001,93.2320026 311.384,92.704 C311.159999,92.1759974 311.048,91.5706701 311.048,90.888 L311.048,90.856 C311.048,90.1839966 311.159999,89.581336 311.384,89.048 C311.608001,88.514664 311.906665,88.0640018 312.28,87.696 C312.653335,87.3279982 313.074664,87.0453343 313.544,86.848 C314.013336,86.6506657 314.498664,86.552 315,86.552 C315.384002,86.552 315.735998,86.5999995 316.056,86.696 C316.376002,86.7920005 316.663999,86.9199992 316.92,87.08 C317.176001,87.2400008 317.407999,87.4266656 317.616,87.64 C317.824001,87.8533344 318.007999,88.0773322 318.168,88.312 L318.168,83.32 L319.4,83.32 L319.4,95 L318.168,95 L318.168,93.336 C317.997332,93.5813346 317.808001,93.8159989 317.6,94.04 C317.391999,94.2640011 317.160001,94.4613325 316.904,94.632 C316.647999,94.8026675 316.362668,94.9359995 316.048,95.032 C315.733332,95.1280005 315.384002,95.176 315,95.176 L315,95.176 Z M326.952,86.728 L328.184,86.728 L328.184,88.168 C328.461335,87.7199978 328.823998,87.3386682 329.272,87.024 C329.720002,86.7093318 330.30133,86.552 331.016,86.552 C331.517336,86.552 331.962665,86.6319992 332.352,86.792 C332.741335,86.9520008 333.071999,87.1786652 333.344,87.472 C333.616001,87.7653348 333.823999,88.1146646 333.968,88.52 C334.112001,88.9253354 334.184,89.3733309 334.184,89.864 L334.184,95 L332.952,95 L332.952,90.168 C332.952,89.3999962 332.754669,88.7920022 332.36,88.344 C331.965331,87.8959978 331.400004,87.672 330.664,87.672 C330.311998,87.672 329.984002,87.7333327 329.68,87.856 C329.375998,87.9786673 329.112001,88.1546655 328.888,88.384 C328.663999,88.6133345 328.490667,88.8879984 328.368,89.208 C328.245333,89.5280016 328.184,89.8799981 328.184,90.264 L328.184,95 L326.952,95 L326.952,86.728 Z M342.872,90.376 C342.84,90.0026648 342.760001,89.6480017 342.632,89.312 C342.503999,88.9759983 342.330668,88.6800013 342.112,88.424 C341.893332,88.1679987 341.626668,87.9653341 341.312,87.816 C340.997332,87.6666659 340.637335,87.592 340.232,87.592 C339.879998,87.592 339.549335,87.6613326 339.24,87.8 C338.930665,87.9386674 338.658668,88.1333321 338.424,88.384 C338.189332,88.6346679 337.994667,88.930665 337.84,89.272 C337.685333,89.613335 337.586667,89.9813314 337.544,90.376 L342.872,90.376 Z M337.544,91.368 C337.586667,91.8053355 337.693332,92.194665 337.864,92.536 C338.034668,92.877335 338.253332,93.1653322 338.52,93.4 C338.786668,93.6346678 339.085332,93.8133327 339.416,93.936 C339.746668,94.0586673 340.093332,94.12 340.456,94.12 C341.032003,94.12 341.525331,94.0133344 341.936,93.8 C342.346669,93.5866656 342.722665,93.3040018 343.064,92.952 L343.832,93.64 C343.415998,94.1093357 342.941336,94.4853319 342.408,94.768 C341.874664,95.0506681 341.213337,95.192 340.424,95.192 C339.858664,95.192 339.325336,95.088001 338.824,94.88 C338.322664,94.671999 337.885335,94.3786686 337.512,94 C337.138665,93.6213314 336.842668,93.165336 336.624,92.632 C336.405332,92.098664 336.296,91.5120032 336.296,90.872 C336.296,90.2746637 336.394666,89.7120026 336.592,89.184 C336.789334,88.6559974 337.063998,88.1973353 337.416,87.808 C337.768002,87.4186647 338.186664,87.1120011 338.672,86.888 C339.157336,86.6639989 339.687997,86.552 340.264,86.552 C340.872003,86.552 341.415998,86.6666655 341.896,86.896 C342.376002,87.1253345 342.781332,87.4373314 343.112,87.832 C343.442668,88.2266686 343.693332,88.690664 343.864,89.224 C344.034668,89.757336 344.12,90.327997 344.12,90.936 L344.12,91.12 C344.12,91.1893337 344.114667,91.2719995 344.104,91.368 L337.544,91.368 Z M345.576,86.728 L346.888,86.728 L349.064,93.368 L351.288,86.696 L352.312,86.696 L354.552,93.368 L356.728,86.728 L358.008,86.728 L355.096,95.064 L354.024,95.064 L351.8,88.536 L349.56,95.064 L348.472,95.064 L345.576,86.728 Z M365.32,87.816 L364.184,87.816 L364.184,86.744 L365.32,86.744 L365.32,86.024 C365.32,85.0853286 365.559998,84.3760024 366.04,83.896 C366.466669,83.4693312 367.058663,83.256 367.816,83.256 C368.104001,83.256 368.351999,83.2719998 368.56,83.304 C368.768001,83.3360002 368.973332,83.389333 369.176,83.464 L369.176,84.536 C368.951999,84.4719997 368.749334,84.4213335 368.568,84.384 C368.386666,84.3466665 368.189334,84.328 367.976,84.328 C367.015995,84.328 366.536,84.9146608 366.536,86.088 L366.536,86.76 L369.16,86.76 L369.16,87.816 L366.552,87.816 L366.552,95 L365.32,95 L365.32,87.816 Z M373.432,94.184 C373.816002,94.184 374.173332,94.1306672 374.504,94.024 C374.834668,93.9173328 375.125332,93.7653343 375.376,93.568 C375.626668,93.3706657 375.823999,93.1360014 375.968,92.864 C376.112001,92.5919986 376.184,92.2906683 376.184,91.96 L376.184,91.192 C375.874665,91.1066662 375.522669,91.026667 375.128,90.952 C374.733331,90.877333 374.280003,90.84 373.768,90.84 C372.999996,90.84 372.405335,90.9919985 371.984,91.296 C371.562665,91.6000015 371.352,92.0026642 371.352,92.504 L371.352,92.536 C371.352,92.7920013 371.407999,93.023999 371.52,93.232 C371.632001,93.440001 371.783999,93.6133326 371.976,93.752 C372.168001,93.8906674 372.389332,93.997333 372.64,94.072 C372.890668,94.146667 373.154665,94.184 373.432,94.184 L373.432,94.184 Z M373.192,95.176 C372.807998,95.176 372.429335,95.1226672 372.056,95.016 C371.682665,94.9093328 371.352001,94.7466678 371.064,94.528 C370.775999,94.3093322 370.544001,94.0400016 370.368,93.72 C370.191999,93.3999984 370.104,93.0266688 370.104,92.6 L370.104,92.568 C370.104,92.1199978 370.189332,91.7280017 370.36,91.392 C370.530668,91.0559983 370.773332,90.7760011 371.088,90.552 C371.402668,90.3279989 371.775998,90.1573339 372.208,90.04 C372.640002,89.9226661 373.117331,89.864 373.64,89.864 C374.173336,89.864 374.634665,89.8959997 375.024,89.96 C375.413335,90.0240003 375.794665,90.1093328 376.168,90.216 L376.168,89.96 C376.168,89.2239963 375.954669,88.6666686 375.528,88.288 C375.101331,87.9093314 374.498671,87.72 373.72,87.72 C373.229331,87.72 372.784002,87.7733328 372.384,87.88 C371.983998,87.9866672 371.592002,88.1306658 371.208,88.312 L370.84,87.304 C371.298669,87.0906656 371.762664,86.9200006 372.232,86.792 C372.701336,86.6639994 373.239997,86.6 373.848,86.6 C375.021339,86.6 375.911997,86.903997 376.52,87.512 C377.096003,88.0880029 377.384,88.8986614 377.384,89.944 L377.384,95 L376.168,95 L376.168,93.768 C375.879999,94.1413352 375.493336,94.4693319 375.008,94.752 C374.522664,95.0346681 373.917337,95.176 373.192,95.176 L373.192,95.176 Z M382.728,95.16 C382.130664,95.16 381.528003,95.0506678 380.92,94.832 C380.311997,94.6133322 379.773336,94.3173352 379.304,93.944 L379.928,93.064 C380.376002,93.405335 380.842664,93.6666658 381.328,93.848 C381.813336,94.0293342 382.301331,94.12 382.792,94.12 C383.293336,94.12 383.703998,94.0026678 384.024,93.768 C384.344002,93.5333322 384.504,93.2133354 384.504,92.808 L384.504,92.776 C384.504,92.5733323 384.448001,92.3973341 384.336,92.248 C384.223999,92.0986659 384.072001,91.9680006 383.88,91.856 C383.687999,91.7439994 383.466668,91.6453338 383.216,91.56 C382.965332,91.4746662 382.706668,91.394667 382.44,91.32 C382.119998,91.2239995 381.797335,91.1200006 381.472,91.008 C381.146665,90.8959994 380.853335,90.7546675 380.592,90.584 C380.330665,90.4133325 380.117334,90.2000013 379.952,89.944 C379.786666,89.6879987 379.704,89.3680019 379.704,88.984 L379.704,88.952 C379.704,88.5999982 379.773333,88.2773348 379.912,87.984 C380.050667,87.6906652 380.245332,87.440001 380.496,87.232 C380.746668,87.023999 381.045332,86.8640006 381.392,86.752 C381.738668,86.6399994 382.114665,86.584 382.52,86.584 C383.032003,86.584 383.549331,86.6666658 384.072,86.832 C384.594669,86.9973342 385.069331,87.2186653 385.496,87.496 L384.936,88.424 C384.551998,88.1786654 384.149335,87.9840007 383.728,87.84 C383.306665,87.6959993 382.893335,87.624 382.488,87.624 C381.997331,87.624 381.608001,87.7386655 381.32,87.968 C381.031999,88.1973345 380.888,88.482665 380.888,88.824 L380.888,88.856 C380.888,89.048001 380.946666,89.2159993 381.064,89.36 C381.181334,89.5040007 381.338666,89.6293328 381.536,89.736 C381.733334,89.8426672 381.959999,89.9386662 382.216,90.024 C382.472001,90.1093338 382.738665,90.1946662 383.016,90.28 C383.336002,90.3760005 383.653332,90.4826661 383.968,90.6 C384.282668,90.7173339 384.567999,90.8666658 384.824,91.048 C385.080001,91.2293342 385.285333,91.4479987 385.44,91.704 C385.594667,91.9600013 385.672,92.2746648 385.672,92.648 L385.672,92.68 C385.672,93.0746686 385.594667,93.4239985 385.44,93.728 C385.285333,94.0320015 385.077335,94.2906656 384.816,94.504 C384.554665,94.7173344 384.245335,94.8799994 383.888,94.992 C383.530665,95.1040006 383.144002,95.16 382.728,95.16 L382.728,95.16 Z M387.96,83.32 L389.192,83.32 L389.192,88.168 C389.469335,87.7199978 389.831998,87.3386682 390.28,87.024 C390.728002,86.7093318 391.30933,86.552 392.024,86.552 C392.525336,86.552 392.970665,86.6319992 393.36,86.792 C393.749335,86.9520008 394.079999,87.1786652 394.352,87.472 C394.624001,87.7653348 394.831999,88.1146646 394.976,88.52 C395.120001,88.9253354 395.192,89.3733309 395.192,89.864 L395.192,95 L393.96,95 L393.96,90.168 C393.96,89.3999962 393.762669,88.7920022 393.368,88.344 C392.973331,87.8959978 392.408004,87.672 391.672,87.672 C391.319998,87.672 390.992002,87.7333327 390.688,87.856 C390.383998,87.9786673 390.120001,88.1546655 389.896,88.384 C389.671999,88.6133345 389.498667,88.8879984 389.376,89.208 C389.253333,89.5280016 389.192,89.8799981 389.192,90.264 L389.192,95 L387.96,95 L387.96,83.32 Z M397.928,86.728 L399.16,86.728 L399.16,95 L397.928,95 L397.928,86.728 Z M397.848,83.56 L399.256,83.56 L399.256,84.92 L397.848,84.92 L397.848,83.56 Z M405.832,94.088 C406.280002,94.088 406.690665,94.0026675 407.064,93.832 C407.437335,93.6613325 407.757332,93.4320014 408.024,93.144 C408.290668,92.8559986 408.498666,92.5200019 408.648,92.136 C408.797334,91.7519981 408.872,91.3413355 408.872,90.904 L408.872,90.872 C408.872,90.4239978 408.794667,90.0053353 408.64,89.616 C408.485333,89.2266647 408.269335,88.8853348 407.992,88.592 C407.714665,88.2986652 407.389335,88.0666675 407.016,87.896 C406.642665,87.7253325 406.237336,87.64 405.8,87.64 C405.351998,87.64 404.941335,87.7253325 404.568,87.896 C404.194665,88.0666675 403.877335,88.2959986 403.616,88.584 C403.354665,88.8720014 403.149334,89.2106647 403,89.6 C402.850666,89.9893353 402.776,90.4026645 402.776,90.84 L402.776,90.872 C402.776,91.3200022 402.853333,91.7386647 403.008,92.128 C403.162667,92.5173353 403.375999,92.8559986 403.648,93.144 C403.920001,93.4320014 404.242665,93.6613325 404.616,93.832 C404.989335,94.0026675 405.394664,94.088 405.832,94.088 L405.832,94.088 Z M405.8,95.192 C405.18133,95.192 404.610669,95.0773345 404.088,94.848 C403.565331,94.6186655 403.112002,94.3093353 402.728,93.92 C402.343998,93.5306647 402.045334,93.0773359 401.832,92.56 C401.618666,92.0426641 401.512,91.4906696 401.512,90.904 L401.512,90.872 C401.512,90.2853304 401.618666,89.7306693 401.832,89.208 C402.045334,88.6853307 402.343998,88.2266686 402.728,87.832 C403.112002,87.4373314 403.567997,87.1253345 404.096,86.896 C404.624003,86.6666655 405.202664,86.552 405.832,86.552 C406.45067,86.552 407.023997,86.6666655 407.552,86.896 C408.080003,87.1253345 408.535998,87.4346647 408.92,87.824 C409.304002,88.2133353 409.602666,88.6666641 409.816,89.184 C410.029334,89.7013359 410.136,90.2533304 410.136,90.84 L410.136,90.872 C410.136,91.4586696 410.026668,92.0133307 409.808,92.536 C409.589332,93.0586693 409.288002,93.5173314 408.904,93.912 C408.519998,94.3066686 408.061336,94.6186655 407.528,94.848 C406.994664,95.0773345 406.41867,95.192 405.8,95.192 L405.8,95.192 Z M412.36,86.728 L413.592,86.728 L413.592,88.168 C413.869335,87.7199978 414.231998,87.3386682 414.68,87.024 C415.128002,86.7093318 415.70933,86.552 416.424,86.552 C416.925336,86.552 417.370665,86.6319992 417.76,86.792 C418.149335,86.9520008 418.479999,87.1786652 418.752,87.472 C419.024001,87.7653348 419.231999,88.1146646 419.376,88.52 C419.520001,88.9253354 419.592,89.3733309 419.592,89.864 L419.592,95 L418.36,95 L418.36,90.168 C418.36,89.3999962 418.162669,88.7920022 417.768,88.344 C417.373331,87.8959978 416.808004,87.672 416.072,87.672 C415.719998,87.672 415.392002,87.7333327 415.088,87.856 C414.783998,87.9786673 414.520001,88.1546655 414.296,88.384 C414.071999,88.6133345 413.898667,88.8879984 413.776,89.208 C413.653333,89.5280016 413.592,89.8799981 413.592,90.264 L413.592,95 L412.36,95 L412.36,86.728 Z M430.712,94.072 C431.096002,94.072 431.466665,93.9946674 431.824,93.84 C432.181335,93.6853326 432.501332,93.4666681 432.784,93.184 C433.066668,92.9013319 433.290666,92.5653353 433.456,92.176 C433.621334,91.7866647 433.704,91.3520024 433.704,90.872 L433.704,90.84 C433.704,90.3599976 433.621334,89.9253353 433.456,89.536 C433.290666,89.1466647 433.066668,88.8133347 432.784,88.536 C432.501332,88.2586653 432.181335,88.0426674 431.824,87.888 C431.466665,87.7333326 431.096002,87.656 430.712,87.656 C430.306665,87.656 429.928002,87.7279993 429.576,87.872 C429.223998,88.0160007 428.917335,88.2239986 428.656,88.496 C428.394665,88.7680014 428.186667,89.1013314 428.032,89.496 C427.877333,89.8906686 427.8,90.3386642 427.8,90.84 L427.8,90.872 C427.8,91.3626691 427.877333,91.8053314 428.032,92.2 C428.186667,92.5946686 428.397332,92.9306653 428.664,93.208 C428.930668,93.4853347 429.239998,93.6986659 429.592,93.848 C429.944002,93.9973341 430.317331,94.072 430.712,94.072 L430.712,94.072 Z M430.488,95.176 C429.986664,95.176 429.501336,95.080001 429.032,94.888 C428.562664,94.695999 428.141335,94.4160018 427.768,94.048 C427.394665,93.6799982 427.096001,93.2320026 426.872,92.704 C426.647999,92.1759974 426.536,91.5706701 426.536,90.888 L426.536,90.856 C426.536,90.1839966 426.647999,89.581336 426.872,89.048 C427.096001,88.514664 427.394665,88.0640018 427.768,87.696 C428.141335,87.3279982 428.562664,87.0453343 429.032,86.848 C429.501336,86.6506657 429.986664,86.552 430.488,86.552 C430.872002,86.552 431.223998,86.5999995 431.544,86.696 C431.864002,86.7920005 432.151999,86.9199992 432.408,87.08 C432.664001,87.2400008 432.895999,87.4266656 433.104,87.64 C433.312001,87.8533344 433.495999,88.0773322 433.656,88.312 L433.656,83.32 L434.888,83.32 L434.888,95 L433.656,95 L433.656,93.336 C433.485332,93.5813346 433.296001,93.8159989 433.088,94.04 C432.879999,94.2640011 432.648001,94.4613325 432.392,94.632 C432.135999,94.8026675 431.850668,94.9359995 431.536,95.032 C431.221332,95.1280005 430.872002,95.176 430.488,95.176 L430.488,95.176 Z M437.752,86.728 L438.984,86.728 L438.984,95 L437.752,95 L437.752,86.728 Z M437.672,83.56 L439.08,83.56 L439.08,84.92 L437.672,84.92 L437.672,83.56 Z M441.848,86.728 L443.08,86.728 L443.08,88.888 C443.229334,88.546665 443.415999,88.2320014 443.64,87.944 C443.864001,87.6559986 444.119999,87.408001 444.408,87.2 C444.696001,86.991999 445.010665,86.8346672 445.352,86.728 C445.693335,86.6213328 446.061331,86.5733333 446.456,86.584 L446.456,87.912 L446.36,87.912 C445.911998,87.912 445.488002,87.9919992 445.088,88.152 C444.687998,88.3120008 444.338668,88.5519984 444.04,88.872 C443.741332,89.1920016 443.506668,89.589331 443.336,90.064 C443.165332,90.538669 443.08,91.0853302 443.08,91.704 L443.08,95 L441.848,95 L441.848,86.728 Z M454.392,90.376 C454.36,90.0026648 454.280001,89.6480017 454.152,89.312 C454.023999,88.9759983 453.850668,88.6800013 453.632,88.424 C453.413332,88.1679987 453.146668,87.9653341 452.832,87.816 C452.517332,87.6666659 452.157335,87.592 451.752,87.592 C451.399998,87.592 451.069335,87.6613326 450.76,87.8 C450.450665,87.9386674 450.178668,88.1333321 449.944,88.384 C449.709332,88.6346679 449.514667,88.930665 449.36,89.272 C449.205333,89.613335 449.106667,89.9813314 449.064,90.376 L454.392,90.376 Z M449.064,91.368 C449.106667,91.8053355 449.213332,92.194665 449.384,92.536 C449.554668,92.877335 449.773332,93.1653322 450.04,93.4 C450.306668,93.6346678 450.605332,93.8133327 450.936,93.936 C451.266668,94.0586673 451.613332,94.12 451.976,94.12 C452.552003,94.12 453.045331,94.0133344 453.456,93.8 C453.866669,93.5866656 454.242665,93.3040018 454.584,92.952 L455.352,93.64 C454.935998,94.1093357 454.461336,94.4853319 453.928,94.768 C453.394664,95.0506681 452.733337,95.192 451.944,95.192 C451.378664,95.192 450.845336,95.088001 450.344,94.88 C449.842664,94.671999 449.405335,94.3786686 449.032,94 C448.658665,93.6213314 448.362668,93.165336 448.144,92.632 C447.925332,92.098664 447.816,91.5120032 447.816,90.872 C447.816,90.2746637 447.914666,89.7120026 448.112,89.184 C448.309334,88.6559974 448.583998,88.1973353 448.936,87.808 C449.288002,87.4186647 449.706664,87.1120011 450.192,86.888 C450.677336,86.6639989 451.207997,86.552 451.784,86.552 C452.392003,86.552 452.935998,86.6666655 453.416,86.896 C453.896002,87.1253345 454.301332,87.4373314 454.632,87.832 C454.962668,88.2266686 455.213332,88.690664 455.384,89.224 C455.554668,89.757336 455.64,90.327997 455.64,90.936 L455.64,91.12 C455.64,91.1893337 455.634667,91.2719995 455.624,91.368 L449.064,91.368 Z M461.528,95.192 C460.919997,95.192 460.357336,95.0773345 459.84,94.848 C459.322664,94.6186655 458.874669,94.3093353 458.496,93.92 C458.117331,93.5306647 457.821334,93.0746693 457.608,92.552 C457.394666,92.0293307 457.288,91.4800029 457.288,90.904 L457.288,90.872 C457.288,90.2853304 457.394666,89.7306693 457.608,89.208 C457.821334,88.6853307 458.117331,88.2266686 458.496,87.832 C458.874669,87.4373314 459.322664,87.1253345 459.84,86.896 C460.357336,86.6666655 460.919997,86.552 461.528,86.552 C461.922669,86.552 462.279998,86.589333 462.6,86.664 C462.920002,86.738667 463.213332,86.842666 463.48,86.976 C463.746668,87.109334 463.991999,87.2666658 464.216,87.448 C464.440001,87.6293342 464.647999,87.8213323 464.84,88.024 L464.024,88.888 C463.693332,88.546665 463.333335,88.2533346 462.944,88.008 C462.554665,87.7626654 462.077336,87.64 461.512,87.64 C461.095998,87.64 460.706668,87.7226658 460.344,87.888 C459.981332,88.0533342 459.666668,88.2799986 459.4,88.568 C459.133332,88.8560014 458.925334,89.1946647 458.776,89.584 C458.626666,89.9733353 458.552,90.3919978 458.552,90.84 L458.552,90.872 C458.552,91.3200022 458.629333,91.7386647 458.784,92.128 C458.938667,92.5173353 459.151999,92.8586652 459.424,93.152 C459.696001,93.4453348 460.015998,93.6746658 460.384,93.84 C460.752002,94.0053342 461.154664,94.088 461.592,94.088 C462.125336,94.088 462.597331,93.9706678 463.008,93.736 C463.418669,93.5013322 463.789332,93.2080018 464.12,92.856 L464.904,93.592 C464.487998,94.0613357 464.016003,94.4453318 463.488,94.744 C462.959997,95.0426682 462.306671,95.192 461.528,95.192 L461.528,95.192 Z M469.704,95.144 C469.373332,95.144 469.064001,95.1013338 468.776,95.016 C468.487999,94.9306662 468.240001,94.7946676 468.032,94.608 C467.823999,94.4213324 467.661334,94.1786682 467.544,93.88 C467.426666,93.5813318 467.368,93.2240021 467.368,92.808 L467.368,87.816 L466.216,87.816 L466.216,86.728 L467.368,86.728 L467.368,84.232 L468.6,84.232 L468.6,86.728 L471.224,86.728 L471.224,87.816 L468.6,87.816 L468.6,92.648 C468.6,93.1600026 468.727999,93.5173323 468.984,93.72 C469.240001,93.9226677 469.575998,94.024 469.992,94.024 C470.205334,94.024 470.405332,94.0026669 470.592,93.96 C470.778668,93.9173331 470.978666,93.8426672 471.192,93.736 L471.192,94.792 C470.978666,94.9093339 470.752001,94.997333 470.512,95.056 C470.271999,95.114667 470.002668,95.144 469.704,95.144 L469.704,95.144 Z M473.512,83.32 L474.744,83.32 L474.744,95 L473.512,95 L473.512,83.32 Z M478.888,97.608 C478.546665,97.608 478.237335,97.5733337 477.96,97.504 C477.682665,97.4346663 477.405335,97.3306674 477.128,97.192 L477.544,96.216 C477.746668,96.3226672 477.946666,96.3999998 478.144,96.448 C478.341334,96.4960002 478.573332,96.52 478.84,96.52 C479.213335,96.52 479.527999,96.4080011 479.784,96.184 C480.040001,95.9599989 480.290665,95.5546696 480.536,94.968 L476.776,86.728 L478.136,86.728 L481.144,93.624 L483.8,86.728 L485.112,86.728 L481.64,95.272 C481.287998,96.1253376 480.896002,96.7279982 480.464,97.08 C480.031998,97.4320018 479.50667,97.608 478.888,97.608 L478.888,97.608 Z M274.84,107.816 L273.704,107.816 L273.704,106.744 L274.84,106.744 L274.84,106.024 C274.84,105.085329 275.079998,104.376002 275.56,103.896 C275.986669,103.469331 276.578663,103.256 277.336,103.256 C277.624001,103.256 277.871999,103.272 278.08,103.304 C278.288001,103.336 278.493332,103.389333 278.696,103.464 L278.696,104.536 C278.471999,104.472 278.269334,104.421334 278.088,104.384 C277.906666,104.346666 277.709334,104.328 277.496,104.328 C276.535995,104.328 276.056,104.914661 276.056,106.088 L276.056,106.76 L278.68,106.76 L278.68,107.816 L276.072,107.816 L276.072,115 L274.84,115 L274.84,107.816 Z M280.248,106.728 L281.48,106.728 L281.48,108.888 C281.629334,108.546665 281.815999,108.232001 282.04,107.944 C282.264001,107.655999 282.519999,107.408001 282.808,107.2 C283.096001,106.991999 283.410665,106.834667 283.752,106.728 C284.093335,106.621333 284.461331,106.573333 284.856,106.584 L284.856,107.912 L284.76,107.912 C284.311998,107.912 283.888002,107.991999 283.488,108.152 C283.087998,108.312001 282.738668,108.551998 282.44,108.872 C282.141332,109.192002 281.906668,109.589331 281.736,110.064 C281.565332,110.538669 281.48,111.08533 281.48,111.704 L281.48,115 L280.248,115 L280.248,106.728 Z M290.536,114.088 C290.984002,114.088 291.394665,114.002668 291.768,113.832 C292.141335,113.661332 292.461332,113.432001 292.728,113.144 C292.994668,112.855999 293.202666,112.520002 293.352,112.136 C293.501334,111.751998 293.576,111.341336 293.576,110.904 L293.576,110.872 C293.576,110.423998 293.498667,110.005335 293.344,109.616 C293.189333,109.226665 292.973335,108.885335 292.696,108.592 C292.418665,108.298665 292.093335,108.066668 291.72,107.896 C291.346665,107.725332 290.941336,107.64 290.504,107.64 C290.055998,107.64 289.645335,107.725332 289.272,107.896 C288.898665,108.066668 288.581335,108.295999 288.32,108.584 C288.058665,108.872001 287.853334,109.210665 287.704,109.6 C287.554666,109.989335 287.48,110.402664 287.48,110.84 L287.48,110.872 C287.48,111.320002 287.557333,111.738665 287.712,112.128 C287.866667,112.517335 288.079999,112.855999 288.352,113.144 C288.624001,113.432001 288.946665,113.661332 289.32,113.832 C289.693335,114.002668 290.098664,114.088 290.536,114.088 L290.536,114.088 Z M290.504,115.192 C289.88533,115.192 289.314669,115.077334 288.792,114.848 C288.269331,114.618666 287.816002,114.309335 287.432,113.92 C287.047998,113.530665 286.749334,113.077336 286.536,112.56 C286.322666,112.042664 286.216,111.49067 286.216,110.904 L286.216,110.872 C286.216,110.28533 286.322666,109.730669 286.536,109.208 C286.749334,108.685331 287.047998,108.226669 287.432,107.832 C287.816002,107.437331 288.271997,107.125334 288.8,106.896 C289.328003,106.666666 289.906664,106.552 290.536,106.552 C291.15467,106.552 291.727997,106.666666 292.256,106.896 C292.784003,107.125334 293.239998,107.434665 293.624,107.824 C294.008002,108.213335 294.306666,108.666664 294.52,109.184 C294.733334,109.701336 294.84,110.25333 294.84,110.84 L294.84,110.872 C294.84,111.45867 294.730668,112.013331 294.512,112.536 C294.293332,113.058669 293.992002,113.517331 293.608,113.912 C293.223998,114.306669 292.765336,114.618666 292.232,114.848 C291.698664,115.077334 291.12267,115.192 290.504,115.192 L290.504,115.192 Z M297.064,106.728 L298.296,106.728 L298.296,108.12 C298.434667,107.917332 298.586666,107.720001 298.752,107.528 C298.917334,107.335999 299.106666,107.168001 299.32,107.024 C299.533334,106.879999 299.773332,106.765334 300.04,106.68 C300.306668,106.594666 300.615998,106.552 300.968,106.552 C301.640003,106.552 302.194664,106.709332 302.632,107.024 C303.069336,107.338668 303.399999,107.730664 303.624,108.2 C303.773334,107.975999 303.941332,107.762668 304.128,107.56 C304.314668,107.357332 304.525332,107.181334 304.76,107.032 C304.994668,106.882666 305.258665,106.765334 305.552,106.68 C305.845335,106.594666 306.173332,106.552 306.536,106.552 C307.496005,106.552 308.247997,106.847997 308.792,107.44 C309.336003,108.032003 309.608,108.845328 309.608,109.88 L309.608,115 L308.376,115 L308.376,110.168 C308.376,109.367996 308.186669,108.752002 307.808,108.32 C307.429331,107.887998 306.904003,107.672 306.232,107.672 C305.922665,107.672 305.629335,107.727999 305.352,107.84 C305.074665,107.952001 304.832001,108.117332 304.624,108.336 C304.415999,108.554668 304.250667,108.823998 304.128,109.144 C304.005333,109.464002 303.944,109.826665 303.944,110.232 L303.944,115 L302.728,115 L302.728,110.136 C302.728,109.357329 302.538669,108.752002 302.16,108.32 C301.781331,107.887998 301.261337,107.672 300.6,107.672 C300.269332,107.672 299.965335,107.735999 299.688,107.864 C299.410665,107.992001 299.168001,108.173332 298.96,108.408 C298.751999,108.642668 298.589334,108.917332 298.472,109.232 C298.354666,109.546668 298.296,109.895998 298.296,110.28 L298.296,115 L297.064,115 L297.064,106.728 Z M319.848,115.144 C319.517332,115.144 319.208001,115.101334 318.92,115.016 C318.631999,114.930666 318.384001,114.794668 318.176,114.608 C317.967999,114.421332 317.805334,114.178668 317.688,113.88 C317.570666,113.581332 317.512,113.224002 317.512,112.808 L317.512,107.816 L316.36,107.816 L316.36,106.728 L317.512,106.728 L317.512,104.232 L318.744,104.232 L318.744,106.728 L321.368,106.728 L321.368,107.816 L318.744,107.816 L318.744,112.648 C318.744,113.160003 318.871999,113.517332 319.128,113.72 C319.384001,113.922668 319.719998,114.024 320.136,114.024 C320.349334,114.024 320.549332,114.002667 320.736,113.96 C320.922668,113.917333 321.122666,113.842667 321.336,113.736 L321.336,114.792 C321.122666,114.909334 320.896001,114.997333 320.656,115.056 C320.415999,115.114667 320.146668,115.144 319.848,115.144 L319.848,115.144 Z M323.544,103.32 L324.776,103.32 L324.776,108.168 C325.053335,107.719998 325.415998,107.338668 325.864,107.024 C326.312002,106.709332 326.89333,106.552 327.608,106.552 C328.109336,106.552 328.554665,106.631999 328.944,106.792 C329.333335,106.952001 329.663999,107.178665 329.936,107.472 C330.208001,107.765335 330.415999,108.114665 330.56,108.52 C330.704001,108.925335 330.776,109.373331 330.776,109.864 L330.776,115 L329.544,115 L329.544,110.168 C329.544,109.399996 329.346669,108.792002 328.952,108.344 C328.557331,107.895998 327.992004,107.672 327.256,107.672 C326.903998,107.672 326.576002,107.733333 326.272,107.856 C325.967998,107.978667 325.704001,108.154666 325.48,108.384 C325.255999,108.613334 325.082667,108.887998 324.96,109.208 C324.837333,109.528002 324.776,109.879998 324.776,110.264 L324.776,115 L323.544,115 L323.544,103.32 Z M339.464,110.376 C339.432,110.002665 339.352001,109.648002 339.224,109.312 C339.095999,108.975998 338.922668,108.680001 338.704,108.424 C338.485332,108.167999 338.218668,107.965334 337.904,107.816 C337.589332,107.666666 337.229335,107.592 336.824,107.592 C336.471998,107.592 336.141335,107.661333 335.832,107.8 C335.522665,107.938667 335.250668,108.133332 335.016,108.384 C334.781332,108.634668 334.586667,108.930665 334.432,109.272 C334.277333,109.613335 334.178667,109.981331 334.136,110.376 L339.464,110.376 Z M334.136,111.368 C334.178667,111.805336 334.285332,112.194665 334.456,112.536 C334.626668,112.877335 334.845332,113.165332 335.112,113.4 C335.378668,113.634668 335.677332,113.813333 336.008,113.936 C336.338668,114.058667 336.685332,114.12 337.048,114.12 C337.624003,114.12 338.117331,114.013334 338.528,113.8 C338.938669,113.586666 339.314665,113.304002 339.656,112.952 L340.424,113.64 C340.007998,114.109336 339.533336,114.485332 339,114.768 C338.466664,115.050668 337.805337,115.192 337.016,115.192 C336.450664,115.192 335.917336,115.088001 335.416,114.88 C334.914664,114.671999 334.477335,114.378669 334.104,114 C333.730665,113.621331 333.434668,113.165336 333.216,112.632 C332.997332,112.098664 332.888,111.512003 332.888,110.872 C332.888,110.274664 332.986666,109.712003 333.184,109.184 C333.381334,108.655997 333.655998,108.197335 334.008,107.808 C334.360002,107.418665 334.778664,107.112001 335.264,106.888 C335.749336,106.663999 336.279997,106.552 336.856,106.552 C337.464003,106.552 338.007998,106.666666 338.488,106.896 C338.968002,107.125334 339.373332,107.437331 339.704,107.832 C340.034668,108.226669 340.285332,108.690664 340.456,109.224 C340.626668,109.757336 340.712,110.327997 340.712,110.936 L340.712,111.12 C340.712,111.189334 340.706667,111.272 340.696,111.368 L334.136,111.368 Z M351.848,114.072 C352.242669,114.072 352.618665,114.000001 352.976,113.856 C353.333335,113.711999 353.642665,113.504001 353.904,113.232 C354.165335,112.959999 354.373333,112.626669 354.528,112.232 C354.682667,111.837331 354.76,111.389336 354.76,110.888 L354.76,110.856 C354.76,110.365331 354.682667,109.922669 354.528,109.528 C354.373333,109.133331 354.162668,108.797335 353.896,108.52 C353.629332,108.242665 353.320002,108.029334 352.968,107.88 C352.615998,107.730666 352.242669,107.656 351.848,107.656 C351.463998,107.656 351.093335,107.733333 350.736,107.888 C350.378665,108.042667 350.058668,108.261332 349.776,108.544 C349.493332,108.826668 349.269334,109.162665 349.104,109.552 C348.938666,109.941335 348.856,110.370664 348.856,110.84 L348.856,110.872 C348.856,111.352002 348.938666,111.789331 349.104,112.184 C349.269334,112.578669 349.493332,112.914665 349.776,113.192 C350.058668,113.469335 350.378665,113.685333 350.736,113.84 C351.093335,113.994667 351.463998,114.072 351.848,114.072 L351.848,114.072 Z M352.072,115.176 C351.687998,115.176 351.336002,115.128 351.016,115.032 C350.695998,114.936 350.408001,114.808001 350.152,114.648 C349.895999,114.487999 349.664001,114.301334 349.456,114.088 C349.247999,113.874666 349.064001,113.650668 348.904,113.416 L348.904,115 L347.672,115 L347.672,103.32 L348.904,103.32 L348.904,108.392 C349.074668,108.146665 349.263999,107.912001 349.472,107.688 C349.680001,107.463999 349.911999,107.269334 350.168,107.104 C350.424001,106.938666 350.709332,106.805334 351.024,106.704 C351.338668,106.602666 351.687998,106.552 352.072,106.552 C352.562669,106.552 353.045331,106.647999 353.52,106.84 C353.994669,107.032001 354.418665,107.311998 354.792,107.68 C355.165335,108.048002 355.463999,108.495997 355.688,109.024 C355.912001,109.552003 356.024,110.15733 356.024,110.84 L356.024,110.872 C356.024,111.544003 355.912001,112.146664 355.688,112.68 C355.463999,113.213336 355.168002,113.663998 354.8,114.032 C354.431998,114.400002 354.010669,114.682666 353.536,114.88 C353.061331,115.077334 352.573336,115.176 352.072,115.176 L352.072,115.176 Z M364.36,110.376 C364.328,110.002665 364.248001,109.648002 364.12,109.312 C363.991999,108.975998 363.818668,108.680001 363.6,108.424 C363.381332,108.167999 363.114668,107.965334 362.8,107.816 C362.485332,107.666666 362.125335,107.592 361.72,107.592 C361.367998,107.592 361.037335,107.661333 360.728,107.8 C360.418665,107.938667 360.146668,108.133332 359.912,108.384 C359.677332,108.634668 359.482667,108.930665 359.328,109.272 C359.173333,109.613335 359.074667,109.981331 359.032,110.376 L364.36,110.376 Z M359.032,111.368 C359.074667,111.805336 359.181332,112.194665 359.352,112.536 C359.522668,112.877335 359.741332,113.165332 360.008,113.4 C360.274668,113.634668 360.573332,113.813333 360.904,113.936 C361.234668,114.058667 361.581332,114.12 361.944,114.12 C362.520003,114.12 363.013331,114.013334 363.424,113.8 C363.834669,113.586666 364.210665,113.304002 364.552,112.952 L365.32,113.64 C364.903998,114.109336 364.429336,114.485332 363.896,114.768 C363.362664,115.050668 362.701337,115.192 361.912,115.192 C361.346664,115.192 360.813336,115.088001 360.312,114.88 C359.810664,114.671999 359.373335,114.378669 359,114 C358.626665,113.621331 358.330668,113.165336 358.112,112.632 C357.893332,112.098664 357.784,111.512003 357.784,110.872 C357.784,110.274664 357.882666,109.712003 358.08,109.184 C358.277334,108.655997 358.551998,108.197335 358.904,107.808 C359.256002,107.418665 359.674664,107.112001 360.16,106.888 C360.645336,106.663999 361.175997,106.552 361.752,106.552 C362.360003,106.552 362.903998,106.666666 363.384,106.896 C363.864002,107.125334 364.269332,107.437331 364.6,107.832 C364.930668,108.226669 365.181332,108.690664 365.352,109.224 C365.522668,109.757336 365.608,110.327997 365.608,110.936 L365.608,111.12 C365.608,111.189334 365.602667,111.272 365.592,111.368 L359.032,111.368 Z M370.504,115.16 C369.906664,115.16 369.304003,115.050668 368.696,114.832 C368.087997,114.613332 367.549336,114.317335 367.08,113.944 L367.704,113.064 C368.152002,113.405335 368.618664,113.666666 369.104,113.848 C369.589336,114.029334 370.077331,114.12 370.568,114.12 C371.069336,114.12 371.479998,114.002668 371.8,113.768 C372.120002,113.533332 372.28,113.213335 372.28,112.808 L372.28,112.776 C372.28,112.573332 372.224001,112.397334 372.112,112.248 C371.999999,112.098666 371.848001,111.968001 371.656,111.856 C371.463999,111.743999 371.242668,111.645334 370.992,111.56 C370.741332,111.474666 370.482668,111.394667 370.216,111.32 C369.895998,111.224 369.573335,111.120001 369.248,111.008 C368.922665,110.895999 368.629335,110.754668 368.368,110.584 C368.106665,110.413332 367.893334,110.200001 367.728,109.944 C367.562666,109.687999 367.48,109.368002 367.48,108.984 L367.48,108.952 C367.48,108.599998 367.549333,108.277335 367.688,107.984 C367.826667,107.690665 368.021332,107.440001 368.272,107.232 C368.522668,107.023999 368.821332,106.864001 369.168,106.752 C369.514668,106.639999 369.890665,106.584 370.296,106.584 C370.808003,106.584 371.325331,106.666666 371.848,106.832 C372.370669,106.997334 372.845331,107.218665 373.272,107.496 L372.712,108.424 C372.327998,108.178665 371.925335,107.984001 371.504,107.84 C371.082665,107.695999 370.669335,107.624 370.264,107.624 C369.773331,107.624 369.384001,107.738666 369.096,107.968 C368.807999,108.197334 368.664,108.482665 368.664,108.824 L368.664,108.856 C368.664,109.048001 368.722666,109.215999 368.84,109.36 C368.957334,109.504001 369.114666,109.629333 369.312,109.736 C369.509334,109.842667 369.735999,109.938666 369.992,110.024 C370.248001,110.109334 370.514665,110.194666 370.792,110.28 C371.112002,110.376 371.429332,110.482666 371.744,110.6 C372.058668,110.717334 372.343999,110.866666 372.6,111.048 C372.856001,111.229334 373.061333,111.447999 373.216,111.704 C373.370667,111.960001 373.448,112.274665 373.448,112.648 L373.448,112.68 C373.448,113.074669 373.370667,113.423998 373.216,113.728 C373.061333,114.032002 372.853335,114.290666 372.592,114.504 C372.330665,114.717334 372.021335,114.879999 371.664,114.992 C371.306665,115.104001 370.920002,115.16 370.504,115.16 L370.504,115.16 Z M378.504,115.144 C378.173332,115.144 377.864001,115.101334 377.576,115.016 C377.287999,114.930666 377.040001,114.794668 376.832,114.608 C376.623999,114.421332 376.461334,114.178668 376.344,113.88 C376.226666,113.581332 376.168,113.224002 376.168,112.808 L376.168,107.816 L375.016,107.816 L375.016,106.728 L376.168,106.728 L376.168,104.232 L377.4,104.232 L377.4,106.728 L380.024,106.728 L380.024,107.816 L377.4,107.816 L377.4,112.648 C377.4,113.160003 377.527999,113.517332 377.784,113.72 C378.040001,113.922668 378.375998,114.024 378.792,114.024 C379.005334,114.024 379.205332,114.002667 379.392,113.96 C379.578668,113.917333 379.778666,113.842667 379.992,113.736 L379.992,114.792 C379.778666,114.909334 379.552001,114.997333 379.312,115.056 C379.071999,115.114667 378.802668,115.144 378.504,115.144 L378.504,115.144 Z M390.696,114.072 C391.080002,114.072 391.450665,113.994667 391.808,113.84 C392.165335,113.685333 392.485332,113.466668 392.768,113.184 C393.050668,112.901332 393.274666,112.565335 393.44,112.176 C393.605334,111.786665 393.688,111.352002 393.688,110.872 L393.688,110.84 C393.688,110.359998 393.605334,109.925335 393.44,109.536 C393.274666,109.146665 393.050668,108.813335 392.768,108.536 C392.485332,108.258665 392.165335,108.042667 391.808,107.888 C391.450665,107.733333 391.080002,107.656 390.696,107.656 C390.290665,107.656 389.912002,107.727999 389.56,107.872 C389.207998,108.016001 388.901335,108.223999 388.64,108.496 C388.378665,108.768001 388.170667,109.101331 388.016,109.496 C387.861333,109.890669 387.784,110.338664 387.784,110.84 L387.784,110.872 C387.784,111.362669 387.861333,111.805331 388.016,112.2 C388.170667,112.594669 388.381332,112.930665 388.648,113.208 C388.914668,113.485335 389.223998,113.698666 389.576,113.848 C389.928002,113.997334 390.301331,114.072 390.696,114.072 L390.696,114.072 Z M390.472,115.176 C389.970664,115.176 389.485336,115.080001 389.016,114.888 C388.546664,114.695999 388.125335,114.416002 387.752,114.048 C387.378665,113.679998 387.080001,113.232003 386.856,112.704 C386.631999,112.175997 386.52,111.57067 386.52,110.888 L386.52,110.856 C386.52,110.183997 386.631999,109.581336 386.856,109.048 C387.080001,108.514664 387.378665,108.064002 387.752,107.696 C388.125335,107.327998 388.546664,107.045334 389.016,106.848 C389.485336,106.650666 389.970664,106.552 390.472,106.552 C390.856002,106.552 391.207998,106.6 391.528,106.696 C391.848002,106.792 392.135999,106.919999 392.392,107.08 C392.648001,107.240001 392.879999,107.426666 393.088,107.64 C393.296001,107.853334 393.479999,108.077332 393.64,108.312 L393.64,103.32 L394.872,103.32 L394.872,115 L393.64,115 L393.64,113.336 C393.469332,113.581335 393.280001,113.815999 393.072,114.04 C392.863999,114.264001 392.632001,114.461332 392.376,114.632 C392.119999,114.802668 391.834668,114.936 391.52,115.032 C391.205332,115.128 390.856002,115.176 390.472,115.176 L390.472,115.176 Z M403.688,110.376 C403.656,110.002665 403.576001,109.648002 403.448,109.312 C403.319999,108.975998 403.146668,108.680001 402.928,108.424 C402.709332,108.167999 402.442668,107.965334 402.128,107.816 C401.813332,107.666666 401.453335,107.592 401.048,107.592 C400.695998,107.592 400.365335,107.661333 400.056,107.8 C399.746665,107.938667 399.474668,108.133332 399.24,108.384 C399.005332,108.634668 398.810667,108.930665 398.656,109.272 C398.501333,109.613335 398.402667,109.981331 398.36,110.376 L403.688,110.376 Z M398.36,111.368 C398.402667,111.805336 398.509332,112.194665 398.68,112.536 C398.850668,112.877335 399.069332,113.165332 399.336,113.4 C399.602668,113.634668 399.901332,113.813333 400.232,113.936 C400.562668,114.058667 400.909332,114.12 401.272,114.12 C401.848003,114.12 402.341331,114.013334 402.752,113.8 C403.162669,113.586666 403.538665,113.304002 403.88,112.952 L404.648,113.64 C404.231998,114.109336 403.757336,114.485332 403.224,114.768 C402.690664,115.050668 402.029337,115.192 401.24,115.192 C400.674664,115.192 400.141336,115.088001 399.64,114.88 C399.138664,114.671999 398.701335,114.378669 398.328,114 C397.954665,113.621331 397.658668,113.165336 397.44,112.632 C397.221332,112.098664 397.112,111.512003 397.112,110.872 C397.112,110.274664 397.210666,109.712003 397.408,109.184 C397.605334,108.655997 397.879998,108.197335 398.232,107.808 C398.584002,107.418665 399.002664,107.112001 399.488,106.888 C399.973336,106.663999 400.503997,106.552 401.08,106.552 C401.688003,106.552 402.231998,106.666666 402.712,106.896 C403.192002,107.125334 403.597332,107.437331 403.928,107.832 C404.258668,108.226669 404.509332,108.690664 404.68,109.224 C404.850668,109.757336 404.936,110.327997 404.936,110.936 L404.936,111.12 C404.936,111.189334 404.930667,111.272 404.92,111.368 L398.36,111.368 Z M409.832,115.16 C409.234664,115.16 408.632003,115.050668 408.024,114.832 C407.415997,114.613332 406.877336,114.317335 406.408,113.944 L407.032,113.064 C407.480002,113.405335 407.946664,113.666666 408.432,113.848 C408.917336,114.029334 409.405331,114.12 409.896,114.12 C410.397336,114.12 410.807998,114.002668 411.128,113.768 C411.448002,113.533332 411.608,113.213335 411.608,112.808 L411.608,112.776 C411.608,112.573332 411.552001,112.397334 411.44,112.248 C411.327999,112.098666 411.176001,111.968001 410.984,111.856 C410.791999,111.743999 410.570668,111.645334 410.32,111.56 C410.069332,111.474666 409.810668,111.394667 409.544,111.32 C409.223998,111.224 408.901335,111.120001 408.576,111.008 C408.250665,110.895999 407.957335,110.754668 407.696,110.584 C407.434665,110.413332 407.221334,110.200001 407.056,109.944 C406.890666,109.687999 406.808,109.368002 406.808,108.984 L406.808,108.952 C406.808,108.599998 406.877333,108.277335 407.016,107.984 C407.154667,107.690665 407.349332,107.440001 407.6,107.232 C407.850668,107.023999 408.149332,106.864001 408.496,106.752 C408.842668,106.639999 409.218665,106.584 409.624,106.584 C410.136003,106.584 410.653331,106.666666 411.176,106.832 C411.698669,106.997334 412.173331,107.218665 412.6,107.496 L412.04,108.424 C411.655998,108.178665 411.253335,107.984001 410.832,107.84 C410.410665,107.695999 409.997335,107.624 409.592,107.624 C409.101331,107.624 408.712001,107.738666 408.424,107.968 C408.135999,108.197334 407.992,108.482665 407.992,108.824 L407.992,108.856 C407.992,109.048001 408.050666,109.215999 408.168,109.36 C408.285334,109.504001 408.442666,109.629333 408.64,109.736 C408.837334,109.842667 409.063999,109.938666 409.32,110.024 C409.576001,110.109334 409.842665,110.194666 410.12,110.28 C410.440002,110.376 410.757332,110.482666 411.072,110.6 C411.386668,110.717334 411.671999,110.866666 411.928,111.048 C412.184001,111.229334 412.389333,111.447999 412.544,111.704 C412.698667,111.960001 412.776,112.274665 412.776,112.648 L412.776,112.68 C412.776,113.074669 412.698667,113.423998 412.544,113.728 C412.389333,114.032002 412.181335,114.290666 411.92,114.504 C411.658665,114.717334 411.349335,114.879999 410.992,114.992 C410.634665,115.104001 410.248002,115.16 409.832,115.16 L409.832,115.16 Z M415.176,106.728 L416.408,106.728 L416.408,115 L415.176,115 L415.176,106.728 Z M415.096,103.56 L416.504,103.56 L416.504,104.92 L415.096,104.92 L415.096,103.56 Z M422.92,113.272 C423.314669,113.272 423.693332,113.205334 424.056,113.072 C424.418668,112.938666 424.741332,112.746668 425.024,112.496 C425.306668,112.245332 425.533332,111.949335 425.704,111.608 C425.874668,111.266665 425.96,110.888002 425.96,110.472 L425.96,110.44 C425.96,110.013331 425.874668,109.629335 425.704,109.288 C425.533332,108.946665 425.306668,108.653335 425.024,108.408 C424.741332,108.162665 424.418668,107.973334 424.056,107.84 C423.693332,107.706666 423.314669,107.64 422.92,107.64 C422.525331,107.64 422.154668,107.706666 421.808,107.84 C421.461332,107.973334 421.157335,108.159999 420.896,108.4 C420.634665,108.640001 420.429334,108.930665 420.28,109.272 C420.130666,109.613335 420.056,109.997331 420.056,110.424 L420.056,110.456 C420.056,110.872002 420.133333,111.253332 420.288,111.6 C420.442667,111.946668 420.650665,112.242665 420.912,112.488 C421.173335,112.733335 421.477332,112.925333 421.824,113.064 C422.170668,113.202667 422.535998,113.272 422.92,113.272 L422.92,113.272 Z M422.936,117.592 C422.242663,117.592 421.581336,117.496001 420.952,117.304 C420.322664,117.111999 419.730669,116.824002 419.176,116.44 L419.736,115.48 C420.216002,115.821335 420.717331,116.082666 421.24,116.264 C421.762669,116.445334 422.322664,116.536 422.92,116.536 C423.837338,116.536 424.567997,116.288002 425.112,115.792 C425.656003,115.295998 425.928,114.562672 425.928,113.592 L425.928,112.616 C425.565332,113.096002 425.122669,113.506665 424.6,113.848 C424.077331,114.189335 423.437337,114.36 422.68,114.36 C422.178664,114.36 421.696002,114.269334 421.232,114.088 C420.767998,113.906666 420.354668,113.648002 419.992,113.312 C419.629332,112.975998 419.338668,112.570669 419.12,112.096 C418.901332,111.621331 418.792,111.085336 418.792,110.488 L418.792,110.456 C418.792,109.847997 418.901332,109.304002 419.12,108.824 C419.338668,108.343998 419.629332,107.936002 419.992,107.6 C420.354668,107.263998 420.770664,107.005334 421.24,106.824 C421.709336,106.642666 422.189331,106.552 422.68,106.552 C423.064002,106.552 423.418665,106.597333 423.744,106.688 C424.069335,106.778667 424.362665,106.898666 424.624,107.048 C424.885335,107.197334 425.122666,107.373332 425.336,107.576 C425.549334,107.778668 425.741332,107.991999 425.912,108.216 L425.912,106.728 L427.144,106.728 L427.144,113.56 C427.144,114.200003 427.053334,114.762664 426.872,115.248 C426.690666,115.733336 426.429335,116.146665 426.088,116.488 C425.714665,116.861335 425.261336,117.138666 424.728,117.32 C424.194664,117.501334 423.597337,117.592 422.936,117.592 L422.936,117.592 Z M429.896,106.728 L431.128,106.728 L431.128,108.168 C431.405335,107.719998 431.767998,107.338668 432.216,107.024 C432.664002,106.709332 433.24533,106.552 433.96,106.552 C434.461336,106.552 434.906665,106.631999 435.296,106.792 C435.685335,106.952001 436.015999,107.178665 436.288,107.472 C436.560001,107.765335 436.767999,108.114665 436.912,108.52 C437.056001,108.925335 437.128,109.373331 437.128,109.864 L437.128,115 L435.896,115 L435.896,110.168 C435.896,109.399996 435.698669,108.792002 435.304,108.344 C434.909331,107.895998 434.344004,107.672 433.608,107.672 C433.255998,107.672 432.928002,107.733333 432.624,107.856 C432.319998,107.978667 432.056001,108.154666 431.832,108.384 C431.607999,108.613334 431.434667,108.887998 431.312,109.208 C431.189333,109.528002 431.128,109.879998 431.128,110.264 L431.128,115 L429.896,115 L429.896,106.728 Z M445.816,110.376 C445.784,110.002665 445.704001,109.648002 445.576,109.312 C445.447999,108.975998 445.274668,108.680001 445.056,108.424 C444.837332,108.167999 444.570668,107.965334 444.256,107.816 C443.941332,107.666666 443.581335,107.592 443.176,107.592 C442.823998,107.592 442.493335,107.661333 442.184,107.8 C441.874665,107.938667 441.602668,108.133332 441.368,108.384 C441.133332,108.634668 440.938667,108.930665 440.784,109.272 C440.629333,109.613335 440.530667,109.981331 440.488,110.376 L445.816,110.376 Z M440.488,111.368 C440.530667,111.805336 440.637332,112.194665 440.808,112.536 C440.978668,112.877335 441.197332,113.165332 441.464,113.4 C441.730668,113.634668 442.029332,113.813333 442.36,113.936 C442.690668,114.058667 443.037332,114.12 443.4,114.12 C443.976003,114.12 444.469331,114.013334 444.88,113.8 C445.290669,113.586666 445.666665,113.304002 446.008,112.952 L446.776,113.64 C446.359998,114.109336 445.885336,114.485332 445.352,114.768 C444.818664,115.050668 444.157337,115.192 443.368,115.192 C442.802664,115.192 442.269336,115.088001 441.768,114.88 C441.266664,114.671999 440.829335,114.378669 440.456,114 C440.082665,113.621331 439.786668,113.165336 439.568,112.632 C439.349332,112.098664 439.24,111.512003 439.24,110.872 C439.24,110.274664 439.338666,109.712003 439.536,109.184 C439.733334,108.655997 440.007998,108.197335 440.36,107.808 C440.712002,107.418665 441.130664,107.112001 441.616,106.888 C442.101336,106.663999 442.631997,106.552 443.208,106.552 C443.816003,106.552 444.359998,106.666666 444.84,106.896 C445.320002,107.125334 445.725332,107.437331 446.056,107.832 C446.386668,108.226669 446.637332,108.690664 446.808,109.224 C446.978668,109.757336 447.064,110.327997 447.064,110.936 L447.064,111.12 C447.064,111.189334 447.058667,111.272 447.048,111.368 L440.488,111.368 Z M449.224,106.728 L450.456,106.728 L450.456,108.888 C450.605334,108.546665 450.791999,108.232001 451.016,107.944 C451.240001,107.655999 451.495999,107.408001 451.784,107.2 C452.072001,106.991999 452.386665,106.834667 452.728,106.728 C453.069335,106.621333 453.437331,106.573333 453.832,106.584 L453.832,107.912 L453.736,107.912 C453.287998,107.912 452.864002,107.991999 452.464,108.152 C452.063998,108.312001 451.714668,108.551998 451.416,108.872 C451.117332,109.192002 450.882668,109.589331 450.712,110.064 C450.541332,110.538669 450.456,111.08533 450.456,111.704 L450.456,115 L449.224,115 L449.224,106.728 Z M458.44,115.16 C457.842664,115.16 457.240003,115.050668 456.632,114.832 C456.023997,114.613332 455.485336,114.317335 455.016,113.944 L455.64,113.064 C456.088002,113.405335 456.554664,113.666666 457.04,113.848 C457.525336,114.029334 458.013331,114.12 458.504,114.12 C459.005336,114.12 459.415998,114.002668 459.736,113.768 C460.056002,113.533332 460.216,113.213335 460.216,112.808 L460.216,112.776 C460.216,112.573332 460.160001,112.397334 460.048,112.248 C459.935999,112.098666 459.784001,111.968001 459.592,111.856 C459.399999,111.743999 459.178668,111.645334 458.928,111.56 C458.677332,111.474666 458.418668,111.394667 458.152,111.32 C457.831998,111.224 457.509335,111.120001 457.184,111.008 C456.858665,110.895999 456.565335,110.754668 456.304,110.584 C456.042665,110.413332 455.829334,110.200001 455.664,109.944 C455.498666,109.687999 455.416,109.368002 455.416,108.984 L455.416,108.952 C455.416,108.599998 455.485333,108.277335 455.624,107.984 C455.762667,107.690665 455.957332,107.440001 456.208,107.232 C456.458668,107.023999 456.757332,106.864001 457.104,106.752 C457.450668,106.639999 457.826665,106.584 458.232,106.584 C458.744003,106.584 459.261331,106.666666 459.784,106.832 C460.306669,106.997334 460.781331,107.218665 461.208,107.496 L460.648,108.424 C460.263998,108.178665 459.861335,107.984001 459.44,107.84 C459.018665,107.695999 458.605335,107.624 458.2,107.624 C457.709331,107.624 457.320001,107.738666 457.032,107.968 C456.743999,108.197334 456.6,108.482665 456.6,108.824 L456.6,108.856 C456.6,109.048001 456.658666,109.215999 456.776,109.36 C456.893334,109.504001 457.050666,109.629333 457.248,109.736 C457.445334,109.842667 457.671999,109.938666 457.928,110.024 C458.184001,110.109334 458.450665,110.194666 458.728,110.28 C459.048002,110.376 459.365332,110.482666 459.68,110.6 C459.994668,110.717334 460.279999,110.866666 460.536,111.048 C460.792001,111.229334 460.997333,111.447999 461.152,111.704 C461.306667,111.960001 461.384,112.274665 461.384,112.648 L461.384,112.68 C461.384,113.074669 461.306667,113.423998 461.152,113.728 C460.997333,114.032002 460.789335,114.290666 460.528,114.504 C460.266665,114.717334 459.957335,114.879999 459.6,114.992 C459.242665,115.104001 458.856002,115.16 458.44,115.16 L458.44,115.16 Z" id="Brand-new-fashion-di" fill="#000000"></path>
            <path d="M615.622782,98.939697 L611.097861,94.4147761 L612.634478,92.8781592 L619.878159,100.121841 L612.878159,107.121841 L611.341542,105.585224 L615.759683,101.167083 L602,101.167083 L602,98.939697 L615.622782,98.939697 Z" id="Combined-Shape-Copy" fill="#000000"></path>
            <rect id="Rectangle-7" fill="#FF7373" transform="translate(150.513433, 100.436782) rotate(45.000000) translate(-150.513433, -100.436782) " x="80.5134327" y="99" width="140" height="2.87356322"></rect>
            <rect id="Rectangle-5" fill="#FFFFFF" x="80" y="75" width="143" height="50"></rect>
            <path d="M82.428,115.544 C82.428,115.784 82.62,116 82.884,116 L88.692,116 C91.62,116 93.924,114.056 93.924,111.368 C93.924,109.16 92.076,107.864 90.804,107.456 C91.932,106.928 93.444,105.488 93.444,103.64 C93.444,101.12 91.236,99.2 88.38,99.2 L82.884,99.2 C82.62,99.2 82.428,99.416 82.428,99.656 L82.428,115.544 Z M85.524,106.256 L85.524,102.056 L88.092,102.056 C89.316,102.056 90.156,102.896 90.156,104.096 C90.156,105.296 89.316,106.256 88.092,106.256 L85.524,106.256 Z M85.524,113.168 L85.524,108.896 L88.14,108.896 C89.388,108.896 90.588,109.784 90.588,110.984 C90.588,112.232 89.628,113.168 88.428,113.168 L85.524,113.168 Z M97.236,115.544 C97.236,115.784 97.428,116 97.692,116 L99.9,116 C100.14,116 100.356,115.784 100.356,115.544 L100.356,109.424 L103.02,109.424 L106.212,115.784 C106.26,115.88 106.38,116 106.596,116 L109.116,116 C109.524,116 109.692,115.616 109.524,115.304 L106.236,109.208 C108.324,108.368 109.788,106.568 109.788,104.36 C109.788,101.504 107.436,99.2 104.556,99.2 L97.692,99.2 C97.428,99.2 97.236,99.416 97.236,99.656 L97.236,115.544 Z M100.38,106.856 L100.38,102.08 L104.292,102.08 C105.564,102.08 106.668,103.136 106.668,104.408 C106.668,105.752 105.564,106.856 104.292,106.856 L100.38,106.856 Z M111.444,116 L113.532,116 C113.916,116 114.132,115.76 114.228,115.52 L115.404,112.928 L122.58,112.928 L123.756,115.52 C123.924,115.856 124.092,116 124.452,116 L126.54,116 C126.9,116 127.092,115.688 126.948,115.376 L119.556,99.224 C119.484,99.08 119.388,98.96 119.148,98.96 L118.908,98.96 C118.692,98.96 118.572,99.08 118.5,99.224 L111.036,115.376 C110.892,115.688 111.084,116 111.444,116 L111.444,116 Z M116.58,110.264 L118.932,104.984 L119.004,104.984 L121.404,110.264 L116.58,110.264 Z M129.132,115.544 C129.132,115.784 129.348,116 129.588,116 L131.772,116 C132.036,116 132.228,115.784 132.228,115.544 L132.228,105.224 L132.252,105.224 L142.284,116.24 L142.86,116.24 C143.1,116.24 143.316,116.048 143.316,115.808 L143.316,99.656 C143.316,99.416 143.1,99.2 142.86,99.2 L140.652,99.2 C140.388,99.2 140.196,99.416 140.196,99.656 L140.196,109.568 L140.172,109.568 L130.188,98.96 L129.588,98.96 C129.348,98.96 129.132,99.152 129.132,99.392 L129.132,115.544 Z M147.684,115.544 C147.684,115.784 147.876,116 148.116,116 L153.804,116 C158.436,116 162.228,112.232 162.228,107.576 C162.228,102.968 158.436,99.2 153.804,99.2 L148.116,99.2 C147.876,99.2 147.684,99.416 147.684,99.656 L147.684,115.544 Z M150.78,113.072 L150.78,102.104 L153.516,102.104 C156.636,102.104 158.916,104.456 158.916,107.576 C158.916,110.72 156.636,113.072 153.516,113.072 L150.78,113.072 Z M170.7,115.544 C170.7,115.784 170.916,116 171.156,116 L173.34,116 C173.604,116 173.796,115.784 173.796,115.544 L173.796,105.224 L173.82,105.224 L183.852,116.24 L184.428,116.24 C184.668,116.24 184.884,116.048 184.884,115.808 L184.884,99.656 C184.884,99.416 184.668,99.2 184.428,99.2 L182.22,99.2 C181.956,99.2 181.764,99.416 181.764,99.656 L181.764,109.568 L181.74,109.568 L171.756,98.96 L171.156,98.96 C170.916,98.96 170.7,99.152 170.7,99.392 L170.7,115.544 Z M189.252,115.544 C189.252,115.784 189.444,116 189.708,116 L199.476,116 C199.74,116 199.932,115.784 199.932,115.544 L199.932,113.576 C199.932,113.336 199.74,113.12 199.476,113.12 L192.372,113.12 L192.372,108.92 L198.3,108.92 C198.54,108.92 198.756,108.728 198.756,108.464 L198.756,106.472 C198.756,106.232 198.54,106.016 198.3,106.016 L192.372,106.016 L192.372,102.08 L199.476,102.08 C199.74,102.08 199.932,101.864 199.932,101.624 L199.932,99.656 C199.932,99.416 199.74,99.2 199.476,99.2 L189.708,99.2 C189.444,99.2 189.252,99.416 189.252,99.656 L189.252,115.544 Z M206.412,115.904 C206.46,116.096 206.652,116.24 206.844,116.24 L207.228,116.24 C207.468,116.24 207.564,116.12 207.636,115.976 L211.884,105.104 L212.004,105.104 L216.3,115.976 C216.348,116.12 216.492,116.24 216.708,116.24 L217.092,116.24 C217.284,116.24 217.476,116.096 217.524,115.904 L222.06,99.776 C222.156,99.44 221.964,99.2 221.628,99.2 L219.42,99.2 C219.228,99.2 219.036,99.368 218.988,99.536 L216.54,109.112 L216.444,109.112 L212.604,99.224 C212.556,99.08 212.436,98.96 212.196,98.96 L211.764,98.96 C211.524,98.96 211.404,99.08 211.356,99.224 L207.54,109.112 L207.444,109.112 L204.948,99.536 C204.9,99.368 204.708,99.2 204.516,99.2 L202.308,99.2 C201.972,99.2 201.78,99.44 201.876,99.776 L206.412,115.904 Z" id="BRAND-NEW" fill="#000000"></path>
            <path d="M119.882,91.006 C120.064,91.174 121.184,92.14 122.836,92.14 C124.474,92.14 125.86,91.076 125.86,89.62 C125.86,87.996 124.642,87.282 122.752,86.512 C121.576,86.022 120.862,85.476 120.862,84.538 C120.862,83.95 121.31,82.998 122.794,82.998 C123.648,82.998 124.53,83.586 124.628,83.642 C124.852,83.768 124.992,83.712 125.118,83.516 C125.174,83.432 125.23,83.334 125.286,83.25 C125.454,82.984 125.286,82.816 125.202,82.774 C125.202,82.774 124.18,82.06 122.808,82.06 C120.582,82.06 119.826,83.6 119.826,84.552 C119.826,86.148 120.75,86.778 122.29,87.45 C123.9,88.122 124.74,88.696 124.74,89.662 C124.74,90.488 123.998,91.202 122.864,91.202 C121.618,91.202 120.596,90.222 120.498,90.138 C120.302,89.97 120.148,90.082 120.008,90.264 C119.938,90.348 119.868,90.446 119.798,90.53 C119.63,90.796 119.77,90.908 119.882,91.006 L119.882,91.006 Z M129.89,91.734 C129.89,91.874 130.016,92 130.156,92 L130.702,92 C130.856,92 130.968,91.874 130.968,91.734 L130.968,87.492 L136.652,87.492 L136.652,91.734 C136.652,91.874 136.764,92 136.918,92 L137.464,92 C137.604,92 137.73,91.874 137.73,91.734 L137.73,82.466 C137.73,82.326 137.604,82.2 137.464,82.2 L136.918,82.2 C136.764,82.2 136.652,82.326 136.652,82.466 L136.652,86.554 L130.968,86.554 L130.968,82.466 C130.968,82.326 130.856,82.2 130.702,82.2 L130.156,82.2 C130.016,82.2 129.89,82.326 129.89,82.466 L129.89,91.734 Z M141.872,87.114 C141.872,89.914 144.098,92.14 146.898,92.14 C149.698,92.14 151.938,89.914 151.938,87.114 C151.938,84.314 149.698,82.06 146.898,82.06 C144.098,82.06 141.872,84.314 141.872,87.114 L141.872,87.114 Z M142.852,87.114 C142.852,84.888 144.672,83.04 146.898,83.04 C149.124,83.04 150.958,84.888 150.958,87.114 C150.958,89.34 149.124,91.16 146.898,91.16 C144.672,91.16 142.852,89.34 142.852,87.114 L142.852,87.114 Z M156.08,91.734 C156.08,91.874 156.192,92 156.346,92 L156.878,92 C157.018,92 157.144,91.874 157.144,91.734 L157.144,88.444 L159.454,88.444 C161.162,88.444 162.576,87.03 162.576,85.294 C162.576,83.6 161.162,82.2 159.44,82.2 L156.346,82.2 C156.192,82.2 156.08,82.326 156.08,82.466 L156.08,91.734 Z M157.144,87.408 L157.144,83.264 L159.37,83.264 C160.518,83.264 161.498,84.132 161.498,85.266 C161.498,86.47 160.518,87.408 159.37,87.408 L157.144,87.408 Z" id="SHOP" fill="#4A4A4A"></path>
        </g>
    </g>
</svg>