<?xml version="1.0" encoding="UTF-8" standalone="no"?>
<svg width="680px" height="200px" viewBox="0 0 680 200" version="1.1" xmlns="http://www.w3.org/2000/svg" xmlns:xlink="http://www.w3.org/1999/xlink">
    <!-- Generator: Sketch 40.3 (33839) - http://www.bohemiancoding.com/sketch -->
    <title>Group 14</title>
    <desc>Created with Sketch.</desc>
    <defs></defs>
    <g id="Sale-Page" stroke="none" stroke-width="1" fill="none" fill-rule="evenodd">
        <g id="Group-14">
            <rect id="Rectangle-12" fill="#FFFFFF" x="0" y="0" width="680" height="200"></rect>
            <path d="M0,3 L3,0 L3,200 L0,197 L680,197 L677,200 L677,0 L680,3 L0,3 Z M680,0 L680,200 L0,200 L0,0 L680,0 Z" id="Rectangle-Copy-3" fill="#000000"></path>
            <path d="M274.584,83.8 L275.864,83.8 L279.944,89.912 L284.024,83.8 L285.304,83.8 L285.304,95 L284.04,95 L284.04,85.928 L279.96,91.928 L279.896,91.928 L275.816,85.944 L275.816,95 L274.584,95 L274.584,83.8 Z M290.968,94.184 C291.352002,94.184 291.709332,94.1306672 292.04,94.024 C292.370668,93.9173328 292.661332,93.7653343 292.912,93.568 C293.162668,93.3706657 293.359999,93.1360014 293.504,92.864 C293.648001,92.5919986 293.72,92.2906683 293.72,91.96 L293.72,91.192 C293.410665,91.1066662 293.058669,91.026667 292.664,90.952 C292.269331,90.877333 291.816003,90.84 291.304,90.84 C290.535996,90.84 289.941335,90.9919985 289.52,91.296 C289.098665,91.6000015 288.888,92.0026642 288.888,92.504 L288.888,92.536 C288.888,92.7920013 288.943999,93.023999 289.056,93.232 C289.168001,93.440001 289.319999,93.6133326 289.512,93.752 C289.704001,93.8906674 289.925332,93.997333 290.176,94.072 C290.426668,94.146667 290.690665,94.184 290.968,94.184 L290.968,94.184 Z M290.728,95.176 C290.343998,95.176 289.965335,95.1226672 289.592,95.016 C289.218665,94.9093328 288.888001,94.7466678 288.6,94.528 C288.311999,94.3093322 288.080001,94.0400016 287.904,93.72 C287.727999,93.3999984 287.64,93.0266688 287.64,92.6 L287.64,92.568 C287.64,92.1199978 287.725332,91.7280017 287.896,91.392 C288.066668,91.0559983 288.309332,90.7760011 288.624,90.552 C288.938668,90.3279989 289.311998,90.1573339 289.744,90.04 C290.176002,89.9226661 290.653331,89.864 291.176,89.864 C291.709336,89.864 292.170665,89.8959997 292.56,89.96 C292.949335,90.0240003 293.330665,90.1093328 293.704,90.216 L293.704,89.96 C293.704,89.2239963 293.490669,88.6666686 293.064,88.288 C292.637331,87.9093314 292.034671,87.72 291.256,87.72 C290.765331,87.72 290.320002,87.7733328 289.92,87.88 C289.519998,87.9866672 289.128002,88.1306658 288.744,88.312 L288.376,87.304 C288.834669,87.0906656 289.298664,86.9200006 289.768,86.792 C290.237336,86.6639994 290.775997,86.6 291.384,86.6 C292.557339,86.6 293.447997,86.903997 294.056,87.512 C294.632003,88.0880029 294.92,88.8986614 294.92,89.944 L294.92,95 L293.704,95 L293.704,93.768 C293.415999,94.1413352 293.029336,94.4693319 292.544,94.752 C292.058664,95.0346681 291.453337,95.176 290.728,95.176 L290.728,95.176 Z M297.528,86.728 L298.76,86.728 L298.76,88.888 C298.909334,88.546665 299.095999,88.2320014 299.32,87.944 C299.544001,87.6559986 299.799999,87.408001 300.088,87.2 C300.376001,86.991999 300.690665,86.8346672 301.032,86.728 C301.373335,86.6213328 301.741331,86.5733333 302.136,86.584 L302.136,87.912 L302.04,87.912 C301.591998,87.912 301.168002,87.9919992 300.768,88.152 C300.367998,88.3120008 300.018668,88.5519984 299.72,88.872 C299.421332,89.1920016 299.186668,89.589331 299.016,90.064 C298.845332,90.538669 298.76,91.0853302 298.76,91.704 L298.76,95 L297.528,95 L297.528,86.728 Z M304.008,83.32 L305.24,83.32 L305.24,91.384 L309.704,86.728 L311.24,86.728 L307.768,90.28 L311.352,95 L309.88,95 L306.92,91.144 L305.24,92.84 L305.24,95 L304.008,95 L304.008,83.32 Z M319.176,90.376 C319.144,90.0026648 319.064001,89.6480017 318.936,89.312 C318.807999,88.9759983 318.634668,88.6800013 318.416,88.424 C318.197332,88.1679987 317.930668,87.9653341 317.616,87.816 C317.301332,87.6666659 316.941335,87.592 316.536,87.592 C316.183998,87.592 315.853335,87.6613326 315.544,87.8 C315.234665,87.9386674 314.962668,88.1333321 314.728,88.384 C314.493332,88.6346679 314.298667,88.930665 314.144,89.272 C313.989333,89.613335 313.890667,89.9813314 313.848,90.376 L319.176,90.376 Z M313.848,91.368 C313.890667,91.8053355 313.997332,92.194665 314.168,92.536 C314.338668,92.877335 314.557332,93.1653322 314.824,93.4 C315.090668,93.6346678 315.389332,93.8133327 315.72,93.936 C316.050668,94.0586673 316.397332,94.12 316.76,94.12 C317.336003,94.12 317.829331,94.0133344 318.24,93.8 C318.650669,93.5866656 319.026665,93.3040018 319.368,92.952 L320.136,93.64 C319.719998,94.1093357 319.245336,94.4853319 318.712,94.768 C318.178664,95.0506681 317.517337,95.192 316.728,95.192 C316.162664,95.192 315.629336,95.088001 315.128,94.88 C314.626664,94.671999 314.189335,94.3786686 313.816,94 C313.442665,93.6213314 313.146668,93.165336 312.928,92.632 C312.709332,92.098664 312.6,91.5120032 312.6,90.872 C312.6,90.2746637 312.698666,89.7120026 312.896,89.184 C313.093334,88.6559974 313.367998,88.1973353 313.72,87.808 C314.072002,87.4186647 314.490664,87.1120011 314.976,86.888 C315.461336,86.6639989 315.991997,86.552 316.568,86.552 C317.176003,86.552 317.719998,86.6666655 318.2,86.896 C318.680002,87.1253345 319.085332,87.4373314 319.416,87.832 C319.746668,88.2266686 319.997332,88.690664 320.168,89.224 C320.338668,89.757336 320.424,90.327997 320.424,90.936 L320.424,91.12 C320.424,91.1893337 320.418667,91.2719995 320.408,91.368 L313.848,91.368 Z M325.352,95.144 C325.021332,95.144 324.712001,95.1013338 324.424,95.016 C324.135999,94.9306662 323.888001,94.7946676 323.68,94.608 C323.471999,94.4213324 323.309334,94.1786682 323.192,93.88 C323.074666,93.5813318 323.016,93.2240021 323.016,92.808 L323.016,87.816 L321.864,87.816 L321.864,86.728 L323.016,86.728 L323.016,84.232 L324.248,84.232 L324.248,86.728 L326.872,86.728 L326.872,87.816 L324.248,87.816 L324.248,92.648 C324.248,93.1600026 324.375999,93.5173323 324.632,93.72 C324.888001,93.9226677 325.223998,94.024 325.64,94.024 C325.853334,94.024 326.053332,94.0026669 326.24,93.96 C326.426668,93.9173331 326.626666,93.8426672 326.84,93.736 L326.84,94.792 C326.626666,94.9093339 326.400001,94.997333 326.16,95.056 C325.919999,95.114667 325.650668,95.144 325.352,95.144 L325.352,95.144 Z M333.224,94.072 C333.618669,94.072 333.994665,94.0000007 334.352,93.856 C334.709335,93.7119993 335.018665,93.5040014 335.28,93.232 C335.541335,92.9599986 335.749333,92.6266686 335.904,92.232 C336.058667,91.8373314 336.136,91.3893358 336.136,90.888 L336.136,90.856 C336.136,90.3653309 336.058667,89.9226686 335.904,89.528 C335.749333,89.1333314 335.538668,88.7973347 335.272,88.52 C335.005332,88.2426653 334.696002,88.0293341 334.344,87.88 C333.991998,87.7306659 333.618669,87.656 333.224,87.656 C332.839998,87.656 332.469335,87.7333326 332.112,87.888 C331.754665,88.0426674 331.434668,88.2613319 331.152,88.544 C330.869332,88.8266681 330.645334,89.1626647 330.48,89.552 C330.314666,89.9413353 330.232,90.3706643 330.232,90.84 L330.232,90.872 C330.232,91.3520024 330.314666,91.7893314 330.48,92.184 C330.645334,92.5786686 330.869332,92.9146653 331.152,93.192 C331.434668,93.4693347 331.754665,93.6853326 332.112,93.84 C332.469335,93.9946674 332.839998,94.072 333.224,94.072 L333.224,94.072 Z M329.048,86.728 L330.28,86.728 L330.28,88.392 C330.450668,88.1466654 330.639999,87.9120011 330.848,87.688 C331.056001,87.4639989 331.287999,87.2693342 331.544,87.104 C331.800001,86.9386658 332.085332,86.8053338 332.4,86.704 C332.714668,86.6026662 333.063998,86.552 333.448,86.552 C333.938669,86.552 334.421331,86.647999 334.896,86.84 C335.370669,87.032001 335.794665,87.3119982 336.168,87.68 C336.541335,88.0480018 336.839999,88.4959974 337.064,89.024 C337.288001,89.5520026 337.4,90.1573299 337.4,90.84 L337.4,90.872 C337.4,91.5440034 337.288001,92.146664 337.064,92.68 C336.839999,93.213336 336.544002,93.6639982 336.176,94.032 C335.807998,94.4000018 335.386669,94.6826657 334.912,94.88 C334.437331,95.0773343 333.949336,95.176 333.448,95.176 C333.063998,95.176 332.712002,95.1280005 332.392,95.032 C332.071998,94.9359995 331.784001,94.8080008 331.528,94.648 C331.271999,94.4879992 331.040001,94.3013344 330.832,94.088 C330.623999,93.8746656 330.440001,93.6506678 330.28,93.416 L330.28,97.56 L329.048,97.56 L329.048,86.728 Z M339.784,83.32 L341.016,83.32 L341.016,95 L339.784,95 L339.784,83.32 Z M346.584,94.184 C346.968002,94.184 347.325332,94.1306672 347.656,94.024 C347.986668,93.9173328 348.277332,93.7653343 348.528,93.568 C348.778668,93.3706657 348.975999,93.1360014 349.12,92.864 C349.264001,92.5919986 349.336,92.2906683 349.336,91.96 L349.336,91.192 C349.026665,91.1066662 348.674669,91.026667 348.28,90.952 C347.885331,90.877333 347.432003,90.84 346.92,90.84 C346.151996,90.84 345.557335,90.9919985 345.136,91.296 C344.714665,91.6000015 344.504,92.0026642 344.504,92.504 L344.504,92.536 C344.504,92.7920013 344.559999,93.023999 344.672,93.232 C344.784001,93.440001 344.935999,93.6133326 345.128,93.752 C345.320001,93.8906674 345.541332,93.997333 345.792,94.072 C346.042668,94.146667 346.306665,94.184 346.584,94.184 L346.584,94.184 Z M346.344,95.176 C345.959998,95.176 345.581335,95.1226672 345.208,95.016 C344.834665,94.9093328 344.504001,94.7466678 344.216,94.528 C343.927999,94.3093322 343.696001,94.0400016 343.52,93.72 C343.343999,93.3999984 343.256,93.0266688 343.256,92.6 L343.256,92.568 C343.256,92.1199978 343.341332,91.7280017 343.512,91.392 C343.682668,91.0559983 343.925332,90.7760011 344.24,90.552 C344.554668,90.3279989 344.927998,90.1573339 345.36,90.04 C345.792002,89.9226661 346.269331,89.864 346.792,89.864 C347.325336,89.864 347.786665,89.8959997 348.176,89.96 C348.565335,90.0240003 348.946665,90.1093328 349.32,90.216 L349.32,89.96 C349.32,89.2239963 349.106669,88.6666686 348.68,88.288 C348.253331,87.9093314 347.650671,87.72 346.872,87.72 C346.381331,87.72 345.936002,87.7733328 345.536,87.88 C345.135998,87.9866672 344.744002,88.1306658 344.36,88.312 L343.992,87.304 C344.450669,87.0906656 344.914664,86.9200006 345.384,86.792 C345.853336,86.6639994 346.391997,86.6 347,86.6 C348.173339,86.6 349.063997,86.903997 349.672,87.512 C350.248003,88.0880029 350.536,88.8986614 350.536,89.944 L350.536,95 L349.32,95 L349.32,93.768 C349.031999,94.1413352 348.645336,94.4693319 348.16,94.752 C347.674664,95.0346681 347.069337,95.176 346.344,95.176 L346.344,95.176 Z M356.872,95.192 C356.263997,95.192 355.701336,95.0773345 355.184,94.848 C354.666664,94.6186655 354.218669,94.3093353 353.84,93.92 C353.461331,93.5306647 353.165334,93.0746693 352.952,92.552 C352.738666,92.0293307 352.632,91.4800029 352.632,90.904 L352.632,90.872 C352.632,90.2853304 352.738666,89.7306693 352.952,89.208 C353.165334,88.6853307 353.461331,88.2266686 353.84,87.832 C354.218669,87.4373314 354.666664,87.1253345 355.184,86.896 C355.701336,86.6666655 356.263997,86.552 356.872,86.552 C357.266669,86.552 357.623998,86.589333 357.944,86.664 C358.264002,86.738667 358.557332,86.842666 358.824,86.976 C359.090668,87.109334 359.335999,87.2666658 359.56,87.448 C359.784001,87.6293342 359.991999,87.8213323 360.184,88.024 L359.368,88.888 C359.037332,88.546665 358.677335,88.2533346 358.288,88.008 C357.898665,87.7626654 357.421336,87.64 356.856,87.64 C356.439998,87.64 356.050668,87.7226658 355.688,87.888 C355.325332,88.0533342 355.010668,88.2799986 354.744,88.568 C354.477332,88.8560014 354.269334,89.1946647 354.12,89.584 C353.970666,89.9733353 353.896,90.3919978 353.896,90.84 L353.896,90.872 C353.896,91.3200022 353.973333,91.7386647 354.128,92.128 C354.282667,92.5173353 354.495999,92.8586652 354.768,93.152 C355.040001,93.4453348 355.359998,93.6746658 355.728,93.84 C356.096002,94.0053342 356.498664,94.088 356.936,94.088 C357.469336,94.088 357.941331,93.9706678 358.352,93.736 C358.762669,93.5013322 359.133332,93.2080018 359.464,92.856 L360.248,93.592 C359.831998,94.0613357 359.360003,94.4453318 358.832,94.744 C358.303997,95.0426682 357.650671,95.192 356.872,95.192 L356.872,95.192 Z M368.344,90.376 C368.312,90.0026648 368.232001,89.6480017 368.104,89.312 C367.975999,88.9759983 367.802668,88.6800013 367.584,88.424 C367.365332,88.1679987 367.098668,87.9653341 366.784,87.816 C366.469332,87.6666659 366.109335,87.592 365.704,87.592 C365.351998,87.592 365.021335,87.6613326 364.712,87.8 C364.402665,87.9386674 364.130668,88.1333321 363.896,88.384 C363.661332,88.6346679 363.466667,88.930665 363.312,89.272 C363.157333,89.613335 363.058667,89.9813314 363.016,90.376 L368.344,90.376 Z M363.016,91.368 C363.058667,91.8053355 363.165332,92.194665 363.336,92.536 C363.506668,92.877335 363.725332,93.1653322 363.992,93.4 C364.258668,93.6346678 364.557332,93.8133327 364.888,93.936 C365.218668,94.0586673 365.565332,94.12 365.928,94.12 C366.504003,94.12 366.997331,94.0133344 367.408,93.8 C367.818669,93.5866656 368.194665,93.3040018 368.536,92.952 L369.304,93.64 C368.887998,94.1093357 368.413336,94.4853319 367.88,94.768 C367.346664,95.0506681 366.685337,95.192 365.896,95.192 C365.330664,95.192 364.797336,95.088001 364.296,94.88 C363.794664,94.671999 363.357335,94.3786686 362.984,94 C362.610665,93.6213314 362.314668,93.165336 362.096,92.632 C361.877332,92.098664 361.768,91.5120032 361.768,90.872 C361.768,90.2746637 361.866666,89.7120026 362.064,89.184 C362.261334,88.6559974 362.535998,88.1973353 362.888,87.808 C363.240002,87.4186647 363.658664,87.1120011 364.144,86.888 C364.629336,86.6639989 365.159997,86.552 365.736,86.552 C366.344003,86.552 366.887998,86.6666655 367.368,86.896 C367.848002,87.1253345 368.253332,87.4373314 368.584,87.832 C368.914668,88.2266686 369.165332,88.690664 369.336,89.224 C369.506668,89.757336 369.592,90.327997 369.592,90.936 L369.592,91.12 C369.592,91.1893337 369.586667,91.2719995 369.576,91.368 L363.016,91.368 Z M377.016,87.816 L375.88,87.816 L375.88,86.744 L377.016,86.744 L377.016,86.024 C377.016,85.0853286 377.255998,84.3760024 377.736,83.896 C378.162669,83.4693312 378.754663,83.256 379.512,83.256 C379.800001,83.256 380.047999,83.2719998 380.256,83.304 C380.464001,83.3360002 380.669332,83.389333 380.872,83.464 L380.872,84.536 C380.647999,84.4719997 380.445334,84.4213335 380.264,84.384 C380.082666,84.3466665 379.885334,84.328 379.672,84.328 C378.711995,84.328 378.232,84.9146608 378.232,86.088 L378.232,86.76 L380.856,86.76 L380.856,87.816 L378.248,87.816 L378.248,95 L377.016,95 L377.016,87.816 Z M386.232,94.088 C386.680002,94.088 387.090665,94.0026675 387.464,93.832 C387.837335,93.6613325 388.157332,93.4320014 388.424,93.144 C388.690668,92.8559986 388.898666,92.5200019 389.048,92.136 C389.197334,91.7519981 389.272,91.3413355 389.272,90.904 L389.272,90.872 C389.272,90.4239978 389.194667,90.0053353 389.04,89.616 C388.885333,89.2266647 388.669335,88.8853348 388.392,88.592 C388.114665,88.2986652 387.789335,88.0666675 387.416,87.896 C387.042665,87.7253325 386.637336,87.64 386.2,87.64 C385.751998,87.64 385.341335,87.7253325 384.968,87.896 C384.594665,88.0666675 384.277335,88.2959986 384.016,88.584 C383.754665,88.8720014 383.549334,89.2106647 383.4,89.6 C383.250666,89.9893353 383.176,90.4026645 383.176,90.84 L383.176,90.872 C383.176,91.3200022 383.253333,91.7386647 383.408,92.128 C383.562667,92.5173353 383.775999,92.8559986 384.048,93.144 C384.320001,93.4320014 384.642665,93.6613325 385.016,93.832 C385.389335,94.0026675 385.794664,94.088 386.232,94.088 L386.232,94.088 Z M386.2,95.192 C385.58133,95.192 385.010669,95.0773345 384.488,94.848 C383.965331,94.6186655 383.512002,94.3093353 383.128,93.92 C382.743998,93.5306647 382.445334,93.0773359 382.232,92.56 C382.018666,92.0426641 381.912,91.4906696 381.912,90.904 L381.912,90.872 C381.912,90.2853304 382.018666,89.7306693 382.232,89.208 C382.445334,88.6853307 382.743998,88.2266686 383.128,87.832 C383.512002,87.4373314 383.967997,87.1253345 384.496,86.896 C385.024003,86.6666655 385.602664,86.552 386.232,86.552 C386.85067,86.552 387.423997,86.6666655 387.952,86.896 C388.480003,87.1253345 388.935998,87.4346647 389.32,87.824 C389.704002,88.2133353 390.002666,88.6666641 390.216,89.184 C390.429334,89.7013359 390.536,90.2533304 390.536,90.84 L390.536,90.872 C390.536,91.4586696 390.426668,92.0133307 390.208,92.536 C389.989332,93.0586693 389.688002,93.5173314 389.304,93.912 C388.919998,94.3066686 388.461336,94.6186655 387.928,94.848 C387.394664,95.0773345 386.81867,95.192 386.2,95.192 L386.2,95.192 Z M392.76,86.728 L393.992,86.728 L393.992,88.888 C394.141334,88.546665 394.327999,88.2320014 394.552,87.944 C394.776001,87.6559986 395.031999,87.408001 395.32,87.2 C395.608001,86.991999 395.922665,86.8346672 396.264,86.728 C396.605335,86.6213328 396.973331,86.5733333 397.368,86.584 L397.368,87.912 L397.272,87.912 C396.823998,87.912 396.400002,87.9919992 396,88.152 C395.599998,88.3120008 395.250668,88.5519984 394.952,88.872 C394.653332,89.1920016 394.418668,89.589331 394.248,90.064 C394.077332,90.538669 393.992,91.0853302 393.992,91.704 L393.992,95 L392.76,95 L392.76,86.728 Z M404.504,87.816 L403.368,87.816 L403.368,86.744 L404.504,86.744 L404.504,86.024 C404.504,85.0853286 404.743998,84.3760024 405.224,83.896 C405.650669,83.4693312 406.242663,83.256 407,83.256 C407.288001,83.256 407.535999,83.2719998 407.744,83.304 C407.952001,83.3360002 408.157332,83.389333 408.36,83.464 L408.36,84.536 C408.135999,84.4719997 407.933334,84.4213335 407.752,84.384 C407.570666,84.3466665 407.373334,84.328 407.16,84.328 C406.199995,84.328 405.72,84.9146608 405.72,86.088 L405.72,86.76 L408.344,86.76 L408.344,87.816 L405.736,87.816 L405.736,95 L404.504,95 L404.504,87.816 Z M412.616,94.184 C413.000002,94.184 413.357332,94.1306672 413.688,94.024 C414.018668,93.9173328 414.309332,93.7653343 414.56,93.568 C414.810668,93.3706657 415.007999,93.1360014 415.152,92.864 C415.296001,92.5919986 415.368,92.2906683 415.368,91.96 L415.368,91.192 C415.058665,91.1066662 414.706669,91.026667 414.312,90.952 C413.917331,90.877333 413.464003,90.84 412.952,90.84 C412.183996,90.84 411.589335,90.9919985 411.168,91.296 C410.746665,91.6000015 410.536,92.0026642 410.536,92.504 L410.536,92.536 C410.536,92.7920013 410.591999,93.023999 410.704,93.232 C410.816001,93.440001 410.967999,93.6133326 411.16,93.752 C411.352001,93.8906674 411.573332,93.997333 411.824,94.072 C412.074668,94.146667 412.338665,94.184 412.616,94.184 L412.616,94.184 Z M412.376,95.176 C411.991998,95.176 411.613335,95.1226672 411.24,95.016 C410.866665,94.9093328 410.536001,94.7466678 410.248,94.528 C409.959999,94.3093322 409.728001,94.0400016 409.552,93.72 C409.375999,93.3999984 409.288,93.0266688 409.288,92.6 L409.288,92.568 C409.288,92.1199978 409.373332,91.7280017 409.544,91.392 C409.714668,91.0559983 409.957332,90.7760011 410.272,90.552 C410.586668,90.3279989 410.959998,90.1573339 411.392,90.04 C411.824002,89.9226661 412.301331,89.864 412.824,89.864 C413.357336,89.864 413.818665,89.8959997 414.208,89.96 C414.597335,90.0240003 414.978665,90.1093328 415.352,90.216 L415.352,89.96 C415.352,89.2239963 415.138669,88.6666686 414.712,88.288 C414.285331,87.9093314 413.682671,87.72 412.904,87.72 C412.413331,87.72 411.968002,87.7733328 411.568,87.88 C411.167998,87.9866672 410.776002,88.1306658 410.392,88.312 L410.024,87.304 C410.482669,87.0906656 410.946664,86.9200006 411.416,86.792 C411.885336,86.6639994 412.423997,86.6 413.032,86.6 C414.205339,86.6 415.095997,86.903997 415.704,87.512 C416.280003,88.0880029 416.568,88.8986614 416.568,89.944 L416.568,95 L415.352,95 L415.352,93.768 C415.063999,94.1413352 414.677336,94.4693319 414.192,94.752 C413.706664,95.0346681 413.101337,95.176 412.376,95.176 L412.376,95.176 Z M421.912,95.16 C421.314664,95.16 420.712003,95.0506678 420.104,94.832 C419.495997,94.6133322 418.957336,94.3173352 418.488,93.944 L419.112,93.064 C419.560002,93.405335 420.026664,93.6666658 420.512,93.848 C420.997336,94.0293342 421.485331,94.12 421.976,94.12 C422.477336,94.12 422.887998,94.0026678 423.208,93.768 C423.528002,93.5333322 423.688,93.2133354 423.688,92.808 L423.688,92.776 C423.688,92.5733323 423.632001,92.3973341 423.52,92.248 C423.407999,92.0986659 423.256001,91.9680006 423.064,91.856 C422.871999,91.7439994 422.650668,91.6453338 422.4,91.56 C422.149332,91.4746662 421.890668,91.394667 421.624,91.32 C421.303998,91.2239995 420.981335,91.1200006 420.656,91.008 C420.330665,90.8959994 420.037335,90.7546675 419.776,90.584 C419.514665,90.4133325 419.301334,90.2000013 419.136,89.944 C418.970666,89.6879987 418.888,89.3680019 418.888,88.984 L418.888,88.952 C418.888,88.5999982 418.957333,88.2773348 419.096,87.984 C419.234667,87.6906652 419.429332,87.440001 419.68,87.232 C419.930668,87.023999 420.229332,86.8640006 420.576,86.752 C420.922668,86.6399994 421.298665,86.584 421.704,86.584 C422.216003,86.584 422.733331,86.6666658 423.256,86.832 C423.778669,86.9973342 424.253331,87.2186653 424.68,87.496 L424.12,88.424 C423.735998,88.1786654 423.333335,87.9840007 422.912,87.84 C422.490665,87.6959993 422.077335,87.624 421.672,87.624 C421.181331,87.624 420.792001,87.7386655 420.504,87.968 C420.215999,88.1973345 420.072,88.482665 420.072,88.824 L420.072,88.856 C420.072,89.048001 420.130666,89.2159993 420.248,89.36 C420.365334,89.5040007 420.522666,89.6293328 420.72,89.736 C420.917334,89.8426672 421.143999,89.9386662 421.4,90.024 C421.656001,90.1093338 421.922665,90.1946662 422.2,90.28 C422.520002,90.3760005 422.837332,90.4826661 423.152,90.6 C423.466668,90.7173339 423.751999,90.8666658 424.008,91.048 C424.264001,91.2293342 424.469333,91.4479987 424.624,91.704 C424.778667,91.9600013 424.856,92.2746648 424.856,92.648 L424.856,92.68 C424.856,93.0746686 424.778667,93.4239985 424.624,93.728 C424.469333,94.0320015 424.261335,94.2906656 424,94.504 C423.738665,94.7173344 423.429335,94.8799994 423.072,94.992 C422.714665,95.1040006 422.328002,95.16 421.912,95.16 L421.912,95.16 Z M427.144,83.32 L428.376,83.32 L428.376,88.168 C428.653335,87.7199978 429.015998,87.3386682 429.464,87.024 C429.912002,86.7093318 430.49333,86.552 431.208,86.552 C431.709336,86.552 432.154665,86.6319992 432.544,86.792 C432.933335,86.9520008 433.263999,87.1786652 433.536,87.472 C433.808001,87.7653348 434.015999,88.1146646 434.16,88.52 C434.304001,88.9253354 434.376,89.3733309 434.376,89.864 L434.376,95 L433.144,95 L433.144,90.168 C433.144,89.3999962 432.946669,88.7920022 432.552,88.344 C432.157331,87.8959978 431.592004,87.672 430.856,87.672 C430.503998,87.672 430.176002,87.7333327 429.872,87.856 C429.567998,87.9786673 429.304001,88.1546655 429.08,88.384 C428.855999,88.6133345 428.682667,88.8879984 428.56,89.208 C428.437333,89.5280016 428.376,89.8799981 428.376,90.264 L428.376,95 L427.144,95 L427.144,83.32 Z M437.112,86.728 L438.344,86.728 L438.344,95 L437.112,95 L437.112,86.728 Z M437.032,83.56 L438.44,83.56 L438.44,84.92 L437.032,84.92 L437.032,83.56 Z M445.016,94.088 C445.464002,94.088 445.874665,94.0026675 446.248,93.832 C446.621335,93.6613325 446.941332,93.4320014 447.208,93.144 C447.474668,92.8559986 447.682666,92.5200019 447.832,92.136 C447.981334,91.7519981 448.056,91.3413355 448.056,90.904 L448.056,90.872 C448.056,90.4239978 447.978667,90.0053353 447.824,89.616 C447.669333,89.2266647 447.453335,88.8853348 447.176,88.592 C446.898665,88.2986652 446.573335,88.0666675 446.2,87.896 C445.826665,87.7253325 445.421336,87.64 444.984,87.64 C444.535998,87.64 444.125335,87.7253325 443.752,87.896 C443.378665,88.0666675 443.061335,88.2959986 442.8,88.584 C442.538665,88.8720014 442.333334,89.2106647 442.184,89.6 C442.034666,89.9893353 441.96,90.4026645 441.96,90.84 L441.96,90.872 C441.96,91.3200022 442.037333,91.7386647 442.192,92.128 C442.346667,92.5173353 442.559999,92.8559986 442.832,93.144 C443.104001,93.4320014 443.426665,93.6613325 443.8,93.832 C444.173335,94.0026675 444.578664,94.088 445.016,94.088 L445.016,94.088 Z M444.984,95.192 C444.36533,95.192 443.794669,95.0773345 443.272,94.848 C442.749331,94.6186655 442.296002,94.3093353 441.912,93.92 C441.527998,93.5306647 441.229334,93.0773359 441.016,92.56 C440.802666,92.0426641 440.696,91.4906696 440.696,90.904 L440.696,90.872 C440.696,90.2853304 440.802666,89.7306693 441.016,89.208 C441.229334,88.6853307 441.527998,88.2266686 441.912,87.832 C442.296002,87.4373314 442.751997,87.1253345 443.28,86.896 C443.808003,86.6666655 444.386664,86.552 445.016,86.552 C445.63467,86.552 446.207997,86.6666655 446.736,86.896 C447.264003,87.1253345 447.719998,87.4346647 448.104,87.824 C448.488002,88.2133353 448.786666,88.6666641 449,89.184 C449.213334,89.7013359 449.32,90.2533304 449.32,90.84 L449.32,90.872 C449.32,91.4586696 449.210668,92.0133307 448.992,92.536 C448.773332,93.0586693 448.472002,93.5173314 448.088,93.912 C447.703998,94.3066686 447.245336,94.6186655 446.712,94.848 C446.178664,95.0773345 445.60267,95.192 444.984,95.192 L444.984,95.192 Z M451.544,86.728 L452.776,86.728 L452.776,88.168 C453.053335,87.7199978 453.415998,87.3386682 453.864,87.024 C454.312002,86.7093318 454.89333,86.552 455.608,86.552 C456.109336,86.552 456.554665,86.6319992 456.944,86.792 C457.333335,86.9520008 457.663999,87.1786652 457.936,87.472 C458.208001,87.7653348 458.415999,88.1146646 458.56,88.52 C458.704001,88.9253354 458.776,89.3733309 458.776,89.864 L458.776,95 L457.544,95 L457.544,90.168 C457.544,89.3999962 457.346669,88.7920022 456.952,88.344 C456.557331,87.8959978 455.992004,87.672 455.256,87.672 C454.903998,87.672 454.576002,87.7333327 454.272,87.856 C453.967998,87.9786673 453.704001,88.1546655 453.48,88.384 C453.255999,88.6133345 453.082667,88.8879984 452.96,89.208 C452.837333,89.5280016 452.776,89.8799981 452.776,90.264 L452.776,95 L451.544,95 L451.544,86.728 Z M461.512,86.728 L462.744,86.728 L462.744,95 L461.512,95 L461.512,86.728 Z M461.432,83.56 L462.84,83.56 L462.84,84.92 L461.432,84.92 L461.432,83.56 Z M468.344,95.16 C467.746664,95.16 467.144003,95.0506678 466.536,94.832 C465.927997,94.6133322 465.389336,94.3173352 464.92,93.944 L465.544,93.064 C465.992002,93.405335 466.458664,93.6666658 466.944,93.848 C467.429336,94.0293342 467.917331,94.12 468.408,94.12 C468.909336,94.12 469.319998,94.0026678 469.64,93.768 C469.960002,93.5333322 470.12,93.2133354 470.12,92.808 L470.12,92.776 C470.12,92.5733323 470.064001,92.3973341 469.952,92.248 C469.839999,92.0986659 469.688001,91.9680006 469.496,91.856 C469.303999,91.7439994 469.082668,91.6453338 468.832,91.56 C468.581332,91.4746662 468.322668,91.394667 468.056,91.32 C467.735998,91.2239995 467.413335,91.1200006 467.088,91.008 C466.762665,90.8959994 466.469335,90.7546675 466.208,90.584 C465.946665,90.4133325 465.733334,90.2000013 465.568,89.944 C465.402666,89.6879987 465.32,89.3680019 465.32,88.984 L465.32,88.952 C465.32,88.5999982 465.389333,88.2773348 465.528,87.984 C465.666667,87.6906652 465.861332,87.440001 466.112,87.232 C466.362668,87.023999 466.661332,86.8640006 467.008,86.752 C467.354668,86.6399994 467.730665,86.584 468.136,86.584 C468.648003,86.584 469.165331,86.6666658 469.688,86.832 C470.210669,86.9973342 470.685331,87.2186653 471.112,87.496 L470.552,88.424 C470.167998,88.1786654 469.765335,87.9840007 469.344,87.84 C468.922665,87.6959993 468.509335,87.624 468.104,87.624 C467.613331,87.624 467.224001,87.7386655 466.936,87.968 C466.647999,88.1973345 466.504,88.482665 466.504,88.824 L466.504,88.856 C466.504,89.048001 466.562666,89.2159993 466.68,89.36 C466.797334,89.5040007 466.954666,89.6293328 467.152,89.736 C467.349334,89.8426672 467.575999,89.9386662 467.832,90.024 C468.088001,90.1093338 468.354665,90.1946662 468.632,90.28 C468.952002,90.3760005 469.269332,90.4826661 469.584,90.6 C469.898668,90.7173339 470.183999,90.8666658 470.44,91.048 C470.696001,91.2293342 470.901333,91.4479987 471.056,91.704 C471.210667,91.9600013 471.288,92.2746648 471.288,92.648 L471.288,92.68 C471.288,93.0746686 471.210667,93.4239985 471.056,93.728 C470.901333,94.0320015 470.693335,94.2906656 470.432,94.504 C470.170665,94.7173344 469.861335,94.8799994 469.504,94.992 C469.146665,95.1040006 468.760002,95.16 468.344,95.16 L468.344,95.16 Z M476.344,95.144 C476.013332,95.144 475.704001,95.1013338 475.416,95.016 C475.127999,94.9306662 474.880001,94.7946676 474.672,94.608 C474.463999,94.4213324 474.301334,94.1786682 474.184,93.88 C474.066666,93.5813318 474.008,93.2240021 474.008,92.808 L474.008,87.816 L472.856,87.816 L472.856,86.728 L474.008,86.728 L474.008,84.232 L475.24,84.232 L475.24,86.728 L477.864,86.728 L477.864,87.816 L475.24,87.816 L475.24,92.648 C475.24,93.1600026 475.367999,93.5173323 475.624,93.72 C475.880001,93.9226677 476.215998,94.024 476.632,94.024 C476.845334,94.024 477.045332,94.0026669 477.232,93.96 C477.418668,93.9173331 477.618666,93.8426672 477.832,93.736 L477.832,94.792 C477.618666,94.9093339 477.392001,94.997333 477.152,95.056 C476.911999,95.114667 476.642668,95.144 476.344,95.144 L476.344,95.144 Z M482.744,94.184 C483.128002,94.184 483.485332,94.1306672 483.816,94.024 C484.146668,93.9173328 484.437332,93.7653343 484.688,93.568 C484.938668,93.3706657 485.135999,93.1360014 485.28,92.864 C485.424001,92.5919986 485.496,92.2906683 485.496,91.96 L485.496,91.192 C485.186665,91.1066662 484.834669,91.026667 484.44,90.952 C484.045331,90.877333 483.592003,90.84 483.08,90.84 C482.311996,90.84 481.717335,90.9919985 481.296,91.296 C480.874665,91.6000015 480.664,92.0026642 480.664,92.504 L480.664,92.536 C480.664,92.7920013 480.719999,93.023999 480.832,93.232 C480.944001,93.440001 481.095999,93.6133326 481.288,93.752 C481.480001,93.8906674 481.701332,93.997333 481.952,94.072 C482.202668,94.146667 482.466665,94.184 482.744,94.184 L482.744,94.184 Z M482.504,95.176 C482.119998,95.176 481.741335,95.1226672 481.368,95.016 C480.994665,94.9093328 480.664001,94.7466678 480.376,94.528 C480.087999,94.3093322 479.856001,94.0400016 479.68,93.72 C479.503999,93.3999984 479.416,93.0266688 479.416,92.6 L479.416,92.568 C479.416,92.1199978 479.501332,91.7280017 479.672,91.392 C479.842668,91.0559983 480.085332,90.7760011 480.4,90.552 C480.714668,90.3279989 481.087998,90.1573339 481.52,90.04 C481.952002,89.9226661 482.429331,89.864 482.952,89.864 C483.485336,89.864 483.946665,89.8959997 484.336,89.96 C484.725335,90.0240003 485.106665,90.1093328 485.48,90.216 L485.48,89.96 C485.48,89.2239963 485.266669,88.6666686 484.84,88.288 C484.413331,87.9093314 483.810671,87.72 483.032,87.72 C482.541331,87.72 482.096002,87.7733328 481.696,87.88 C481.295998,87.9866672 480.904002,88.1306658 480.52,88.312 L480.152,87.304 C480.610669,87.0906656 481.074664,86.9200006 481.544,86.792 C482.013336,86.6639994 482.551997,86.6 483.16,86.6 C484.333339,86.6 485.223997,86.903997 485.832,87.512 C486.408003,88.0880029 486.696,88.8986614 486.696,89.944 L486.696,95 L485.48,95 L485.48,93.768 C485.191999,94.1413352 484.805336,94.4693319 484.32,94.752 C483.834664,95.0346681 483.229337,95.176 482.504,95.176 L482.504,95.176 Z M492.04,95.16 C491.442664,95.16 490.840003,95.0506678 490.232,94.832 C489.623997,94.6133322 489.085336,94.3173352 488.616,93.944 L489.24,93.064 C489.688002,93.405335 490.154664,93.6666658 490.64,93.848 C491.125336,94.0293342 491.613331,94.12 492.104,94.12 C492.605336,94.12 493.015998,94.0026678 493.336,93.768 C493.656002,93.5333322 493.816,93.2133354 493.816,92.808 L493.816,92.776 C493.816,92.5733323 493.760001,92.3973341 493.648,92.248 C493.535999,92.0986659 493.384001,91.9680006 493.192,91.856 C492.999999,91.7439994 492.778668,91.6453338 492.528,91.56 C492.277332,91.4746662 492.018668,91.394667 491.752,91.32 C491.431998,91.2239995 491.109335,91.1200006 490.784,91.008 C490.458665,90.8959994 490.165335,90.7546675 489.904,90.584 C489.642665,90.4133325 489.429334,90.2000013 489.264,89.944 C489.098666,89.6879987 489.016,89.3680019 489.016,88.984 L489.016,88.952 C489.016,88.5999982 489.085333,88.2773348 489.224,87.984 C489.362667,87.6906652 489.557332,87.440001 489.808,87.232 C490.058668,87.023999 490.357332,86.8640006 490.704,86.752 C491.050668,86.6399994 491.426665,86.584 491.832,86.584 C492.344003,86.584 492.861331,86.6666658 493.384,86.832 C493.906669,86.9973342 494.381331,87.2186653 494.808,87.496 L494.248,88.424 C493.863998,88.1786654 493.461335,87.9840007 493.04,87.84 C492.618665,87.6959993 492.205335,87.624 491.8,87.624 C491.309331,87.624 490.920001,87.7386655 490.632,87.968 C490.343999,88.1973345 490.2,88.482665 490.2,88.824 L490.2,88.856 C490.2,89.048001 490.258666,89.2159993 490.376,89.36 C490.493334,89.5040007 490.650666,89.6293328 490.848,89.736 C491.045334,89.8426672 491.271999,89.9386662 491.528,90.024 C491.784001,90.1093338 492.050665,90.1946662 492.328,90.28 C492.648002,90.3760005 492.965332,90.4826661 493.28,90.6 C493.594668,90.7173339 493.879999,90.8666658 494.136,91.048 C494.392001,91.2293342 494.597333,91.4479987 494.752,91.704 C494.906667,91.9600013 494.984,92.2746648 494.984,92.648 L494.984,92.68 C494.984,93.0746686 494.906667,93.4239985 494.752,93.728 C494.597333,94.0320015 494.389335,94.2906656 494.128,94.504 C493.866665,94.7173344 493.557335,94.8799994 493.2,94.992 C492.842665,95.1040006 492.456002,95.16 492.04,95.16 L492.04,95.16 Z M504.84,95.144 C504.509332,95.144 504.200001,95.1013338 503.912,95.016 C503.623999,94.9306662 503.376001,94.7946676 503.168,94.608 C502.959999,94.4213324 502.797334,94.1786682 502.68,93.88 C502.562666,93.5813318 502.504,93.2240021 502.504,92.808 L502.504,87.816 L501.352,87.816 L501.352,86.728 L502.504,86.728 L502.504,84.232 L503.736,84.232 L503.736,86.728 L506.36,86.728 L506.36,87.816 L503.736,87.816 L503.736,92.648 C503.736,93.1600026 503.863999,93.5173323 504.12,93.72 C504.376001,93.9226677 504.711998,94.024 505.128,94.024 C505.341334,94.024 505.541332,94.0026669 505.728,93.96 C505.914668,93.9173331 506.114666,93.8426672 506.328,93.736 L506.328,94.792 C506.114666,94.9093339 505.888001,94.997333 505.648,95.056 C505.407999,95.114667 505.138668,95.144 504.84,95.144 L504.84,95.144 Z M512.344,94.088 C512.792002,94.088 513.202665,94.0026675 513.576,93.832 C513.949335,93.6613325 514.269332,93.4320014 514.536,93.144 C514.802668,92.8559986 515.010666,92.5200019 515.16,92.136 C515.309334,91.7519981 515.384,91.3413355 515.384,90.904 L515.384,90.872 C515.384,90.4239978 515.306667,90.0053353 515.152,89.616 C514.997333,89.2266647 514.781335,88.8853348 514.504,88.592 C514.226665,88.2986652 513.901335,88.0666675 513.528,87.896 C513.154665,87.7253325 512.749336,87.64 512.312,87.64 C511.863998,87.64 511.453335,87.7253325 511.08,87.896 C510.706665,88.0666675 510.389335,88.2959986 510.128,88.584 C509.866665,88.8720014 509.661334,89.2106647 509.512,89.6 C509.362666,89.9893353 509.288,90.4026645 509.288,90.84 L509.288,90.872 C509.288,91.3200022 509.365333,91.7386647 509.52,92.128 C509.674667,92.5173353 509.887999,92.8559986 510.16,93.144 C510.432001,93.4320014 510.754665,93.6613325 511.128,93.832 C511.501335,94.0026675 511.906664,94.088 512.344,94.088 L512.344,94.088 Z M512.312,95.192 C511.69333,95.192 511.122669,95.0773345 510.6,94.848 C510.077331,94.6186655 509.624002,94.3093353 509.24,93.92 C508.855998,93.5306647 508.557334,93.0773359 508.344,92.56 C508.130666,92.0426641 508.024,91.4906696 508.024,90.904 L508.024,90.872 C508.024,90.2853304 508.130666,89.7306693 508.344,89.208 C508.557334,88.6853307 508.855998,88.2266686 509.24,87.832 C509.624002,87.4373314 510.079997,87.1253345 510.608,86.896 C511.136003,86.6666655 511.714664,86.552 512.344,86.552 C512.96267,86.552 513.535997,86.6666655 514.064,86.896 C514.592003,87.1253345 515.047998,87.4346647 515.432,87.824 C515.816002,88.2133353 516.114666,88.6666641 516.328,89.184 C516.541334,89.7013359 516.648,90.2533304 516.648,90.84 L516.648,90.872 C516.648,91.4586696 516.538668,92.0133307 516.32,92.536 C516.101332,93.0586693 515.800002,93.5173314 515.416,93.912 C515.031998,94.3066686 514.573336,94.6186655 514.04,94.848 C513.506664,95.0773345 512.93067,95.192 512.312,95.192 L512.312,95.192 Z M278.552,114.072 C278.946669,114.072 279.322665,114.000001 279.68,113.856 C280.037335,113.711999 280.346665,113.504001 280.608,113.232 C280.869335,112.959999 281.077333,112.626669 281.232,112.232 C281.386667,111.837331 281.464,111.389336 281.464,110.888 L281.464,110.856 C281.464,110.365331 281.386667,109.922669 281.232,109.528 C281.077333,109.133331 280.866668,108.797335 280.6,108.52 C280.333332,108.242665 280.024002,108.029334 279.672,107.88 C279.319998,107.730666 278.946669,107.656 278.552,107.656 C278.167998,107.656 277.797335,107.733333 277.44,107.888 C277.082665,108.042667 276.762668,108.261332 276.48,108.544 C276.197332,108.826668 275.973334,109.162665 275.808,109.552 C275.642666,109.941335 275.56,110.370664 275.56,110.84 L275.56,110.872 C275.56,111.352002 275.642666,111.789331 275.808,112.184 C275.973334,112.578669 276.197332,112.914665 276.48,113.192 C276.762668,113.469335 277.082665,113.685333 277.44,113.84 C277.797335,113.994667 278.167998,114.072 278.552,114.072 L278.552,114.072 Z M278.776,115.176 C278.391998,115.176 278.040002,115.128 277.72,115.032 C277.399998,114.936 277.112001,114.808001 276.856,114.648 C276.599999,114.487999 276.368001,114.301334 276.16,114.088 C275.951999,113.874666 275.768001,113.650668 275.608,113.416 L275.608,115 L274.376,115 L274.376,103.32 L275.608,103.32 L275.608,108.392 C275.778668,108.146665 275.967999,107.912001 276.176,107.688 C276.384001,107.463999 276.615999,107.269334 276.872,107.104 C277.128001,106.938666 277.413332,106.805334 277.728,106.704 C278.042668,106.602666 278.391998,106.552 278.776,106.552 C279.266669,106.552 279.749331,106.647999 280.224,106.84 C280.698669,107.032001 281.122665,107.311998 281.496,107.68 C281.869335,108.048002 282.167999,108.495997 282.392,109.024 C282.616001,109.552003 282.728,110.15733 282.728,110.84 L282.728,110.872 C282.728,111.544003 282.616001,112.146664 282.392,112.68 C282.167999,113.213336 281.872002,113.663998 281.504,114.032 C281.135998,114.400002 280.714669,114.682666 280.24,114.88 C279.765331,115.077334 279.277336,115.176 278.776,115.176 L278.776,115.176 Z M288.04,115.176 C287.538664,115.176 287.093335,115.096001 286.704,114.936 C286.314665,114.775999 285.984001,114.549335 285.712,114.256 C285.439999,113.962665 285.232001,113.613335 285.088,113.208 C284.943999,112.802665 284.872,112.354669 284.872,111.864 L284.872,106.728 L286.104,106.728 L286.104,111.56 C286.104,112.328004 286.301331,112.935998 286.696,113.384 C287.090669,113.832002 287.655996,114.056 288.392,114.056 C288.744002,114.056 289.071998,113.994667 289.376,113.872 C289.680002,113.749333 289.941332,113.573334 290.16,113.344 C290.378668,113.114666 290.551999,112.840002 290.68,112.52 C290.808001,112.199998 290.872,111.848002 290.872,111.464 L290.872,106.728 L292.088,106.728 L292.088,115 L290.872,115 L290.872,113.56 C290.594665,114.008002 290.232002,114.389332 289.784,114.704 C289.335998,115.018668 288.75467,115.176 288.04,115.176 L288.04,115.176 Z M296.136,117.608 C295.794665,117.608 295.485335,117.573334 295.208,117.504 C294.930665,117.434666 294.653335,117.330667 294.376,117.192 L294.792,116.216 C294.994668,116.322667 295.194666,116.4 295.392,116.448 C295.589334,116.496 295.821332,116.52 296.088,116.52 C296.461335,116.52 296.775999,116.408001 297.032,116.184 C297.288001,115.959999 297.538665,115.55467 297.784,114.968 L294.024,106.728 L295.384,106.728 L298.392,113.624 L301.048,106.728 L302.36,106.728 L298.888,115.272 C298.535998,116.125338 298.144002,116.727998 297.712,117.08 C297.279998,117.432002 296.75467,117.608 296.136,117.608 L296.136,117.608 Z M311.816,114.184 C312.200002,114.184 312.557332,114.130667 312.888,114.024 C313.218668,113.917333 313.509332,113.765334 313.76,113.568 C314.010668,113.370666 314.207999,113.136001 314.352,112.864 C314.496001,112.591999 314.568,112.290668 314.568,111.96 L314.568,111.192 C314.258665,111.106666 313.906669,111.026667 313.512,110.952 C313.117331,110.877333 312.664003,110.84 312.152,110.84 C311.383996,110.84 310.789335,110.991998 310.368,111.296 C309.946665,111.600002 309.736,112.002664 309.736,112.504 L309.736,112.536 C309.736,112.792001 309.791999,113.023999 309.904,113.232 C310.016001,113.440001 310.167999,113.613333 310.36,113.752 C310.552001,113.890667 310.773332,113.997333 311.024,114.072 C311.274668,114.146667 311.538665,114.184 311.816,114.184 L311.816,114.184 Z M311.576,115.176 C311.191998,115.176 310.813335,115.122667 310.44,115.016 C310.066665,114.909333 309.736001,114.746668 309.448,114.528 C309.159999,114.309332 308.928001,114.040002 308.752,113.72 C308.575999,113.399998 308.488,113.026669 308.488,112.6 L308.488,112.568 C308.488,112.119998 308.573332,111.728002 308.744,111.392 C308.914668,111.055998 309.157332,110.776001 309.472,110.552 C309.786668,110.327999 310.159998,110.157334 310.592,110.04 C311.024002,109.922666 311.501331,109.864 312.024,109.864 C312.557336,109.864 313.018665,109.896 313.408,109.96 C313.797335,110.024 314.178665,110.109333 314.552,110.216 L314.552,109.96 C314.552,109.223996 314.338669,108.666669 313.912,108.288 C313.485331,107.909331 312.882671,107.72 312.104,107.72 C311.613331,107.72 311.168002,107.773333 310.768,107.88 C310.367998,107.986667 309.976002,108.130666 309.592,108.312 L309.224,107.304 C309.682669,107.090666 310.146664,106.920001 310.616,106.792 C311.085336,106.663999 311.623997,106.6 312.232,106.6 C313.405339,106.6 314.295997,106.903997 314.904,107.512 C315.480003,108.088003 315.768,108.898661 315.768,109.944 L315.768,115 L314.552,115 L314.552,113.768 C314.263999,114.141335 313.877336,114.469332 313.392,114.752 C312.906664,115.034668 312.301337,115.176 311.576,115.176 L311.576,115.176 Z M318.376,106.728 L319.608,106.728 L319.608,108.168 C319.885335,107.719998 320.247998,107.338668 320.696,107.024 C321.144002,106.709332 321.72533,106.552 322.44,106.552 C322.941336,106.552 323.386665,106.631999 323.776,106.792 C324.165335,106.952001 324.495999,107.178665 324.768,107.472 C325.040001,107.765335 325.247999,108.114665 325.392,108.52 C325.536001,108.925335 325.608,109.373331 325.608,109.864 L325.608,115 L324.376,115 L324.376,110.168 C324.376,109.399996 324.178669,108.792002 323.784,108.344 C323.389331,107.895998 322.824004,107.672 322.088,107.672 C321.735998,107.672 321.408002,107.733333 321.104,107.856 C320.799998,107.978667 320.536001,108.154666 320.312,108.384 C320.087999,108.613334 319.914667,108.887998 319.792,109.208 C319.669333,109.528002 319.608,109.879998 319.608,110.264 L319.608,115 L318.376,115 L318.376,106.728 Z M331.928,114.072 C332.312002,114.072 332.682665,113.994667 333.04,113.84 C333.397335,113.685333 333.717332,113.466668 334,113.184 C334.282668,112.901332 334.506666,112.565335 334.672,112.176 C334.837334,111.786665 334.92,111.352002 334.92,110.872 L334.92,110.84 C334.92,110.359998 334.837334,109.925335 334.672,109.536 C334.506666,109.146665 334.282668,108.813335 334,108.536 C333.717332,108.258665 333.397335,108.042667 333.04,107.888 C332.682665,107.733333 332.312002,107.656 331.928,107.656 C331.522665,107.656 331.144002,107.727999 330.792,107.872 C330.439998,108.016001 330.133335,108.223999 329.872,108.496 C329.610665,108.768001 329.402667,109.101331 329.248,109.496 C329.093333,109.890669 329.016,110.338664 329.016,110.84 L329.016,110.872 C329.016,111.362669 329.093333,111.805331 329.248,112.2 C329.402667,112.594669 329.613332,112.930665 329.88,113.208 C330.146668,113.485335 330.455998,113.698666 330.808,113.848 C331.160002,113.997334 331.533331,114.072 331.928,114.072 L331.928,114.072 Z M331.704,115.176 C331.202664,115.176 330.717336,115.080001 330.248,114.888 C329.778664,114.695999 329.357335,114.416002 328.984,114.048 C328.610665,113.679998 328.312001,113.232003 328.088,112.704 C327.863999,112.175997 327.752,111.57067 327.752,110.888 L327.752,110.856 C327.752,110.183997 327.863999,109.581336 328.088,109.048 C328.312001,108.514664 328.610665,108.064002 328.984,107.696 C329.357335,107.327998 329.778664,107.045334 330.248,106.848 C330.717336,106.650666 331.202664,106.552 331.704,106.552 C332.088002,106.552 332.439998,106.6 332.76,106.696 C333.080002,106.792 333.367999,106.919999 333.624,107.08 C333.880001,107.240001 334.111999,107.426666 334.32,107.64 C334.528001,107.853334 334.711999,108.077332 334.872,108.312 L334.872,103.32 L336.104,103.32 L336.104,115 L334.872,115 L334.872,113.336 C334.701332,113.581335 334.512001,113.815999 334.304,114.04 C334.095999,114.264001 333.864001,114.461332 333.608,114.632 C333.351999,114.802668 333.066668,114.936 332.752,115.032 C332.437332,115.128 332.088002,115.176 331.704,115.176 L331.704,115.176 Z M346.392,115.16 C345.794664,115.16 345.192003,115.050668 344.584,114.832 C343.975997,114.613332 343.437336,114.317335 342.968,113.944 L343.592,113.064 C344.040002,113.405335 344.506664,113.666666 344.992,113.848 C345.477336,114.029334 345.965331,114.12 346.456,114.12 C346.957336,114.12 347.367998,114.002668 347.688,113.768 C348.008002,113.533332 348.168,113.213335 348.168,112.808 L348.168,112.776 C348.168,112.573332 348.112001,112.397334 348,112.248 C347.887999,112.098666 347.736001,111.968001 347.544,111.856 C347.351999,111.743999 347.130668,111.645334 346.88,111.56 C346.629332,111.474666 346.370668,111.394667 346.104,111.32 C345.783998,111.224 345.461335,111.120001 345.136,111.008 C344.810665,110.895999 344.517335,110.754668 344.256,110.584 C343.994665,110.413332 343.781334,110.200001 343.616,109.944 C343.450666,109.687999 343.368,109.368002 343.368,108.984 L343.368,108.952 C343.368,108.599998 343.437333,108.277335 343.576,107.984 C343.714667,107.690665 343.909332,107.440001 344.16,107.232 C344.410668,107.023999 344.709332,106.864001 345.056,106.752 C345.402668,106.639999 345.778665,106.584 346.184,106.584 C346.696003,106.584 347.213331,106.666666 347.736,106.832 C348.258669,106.997334 348.733331,107.218665 349.16,107.496 L348.6,108.424 C348.215998,108.178665 347.813335,107.984001 347.392,107.84 C346.970665,107.695999 346.557335,107.624 346.152,107.624 C345.661331,107.624 345.272001,107.738666 344.984,107.968 C344.695999,108.197334 344.552,108.482665 344.552,108.824 L344.552,108.856 C344.552,109.048001 344.610666,109.215999 344.728,109.36 C344.845334,109.504001 345.002666,109.629333 345.2,109.736 C345.397334,109.842667 345.623999,109.938666 345.88,110.024 C346.136001,110.109334 346.402665,110.194666 346.68,110.28 C347.000002,110.376 347.317332,110.482666 347.632,110.6 C347.946668,110.717334 348.231999,110.866666 348.488,111.048 C348.744001,111.229334 348.949333,111.447999 349.104,111.704 C349.258667,111.960001 349.336,112.274665 349.336,112.648 L349.336,112.68 C349.336,113.074669 349.258667,113.423998 349.104,113.728 C348.949333,114.032002 348.741335,114.290666 348.48,114.504 C348.218665,114.717334 347.909335,114.879999 347.552,114.992 C347.194665,115.104001 346.808002,115.16 346.392,115.16 L346.392,115.16 Z M357.688,110.376 C357.656,110.002665 357.576001,109.648002 357.448,109.312 C357.319999,108.975998 357.146668,108.680001 356.928,108.424 C356.709332,108.167999 356.442668,107.965334 356.128,107.816 C355.813332,107.666666 355.453335,107.592 355.048,107.592 C354.695998,107.592 354.365335,107.661333 354.056,107.8 C353.746665,107.938667 353.474668,108.133332 353.24,108.384 C353.005332,108.634668 352.810667,108.930665 352.656,109.272 C352.501333,109.613335 352.402667,109.981331 352.36,110.376 L357.688,110.376 Z M352.36,111.368 C352.402667,111.805336 352.509332,112.194665 352.68,112.536 C352.850668,112.877335 353.069332,113.165332 353.336,113.4 C353.602668,113.634668 353.901332,113.813333 354.232,113.936 C354.562668,114.058667 354.909332,114.12 355.272,114.12 C355.848003,114.12 356.341331,114.013334 356.752,113.8 C357.162669,113.586666 357.538665,113.304002 357.88,112.952 L358.648,113.64 C358.231998,114.109336 357.757336,114.485332 357.224,114.768 C356.690664,115.050668 356.029337,115.192 355.24,115.192 C354.674664,115.192 354.141336,115.088001 353.64,114.88 C353.138664,114.671999 352.701335,114.378669 352.328,114 C351.954665,113.621331 351.658668,113.165336 351.44,112.632 C351.221332,112.098664 351.112,111.512003 351.112,110.872 C351.112,110.274664 351.210666,109.712003 351.408,109.184 C351.605334,108.655997 351.879998,108.197335 352.232,107.808 C352.584002,107.418665 353.002664,107.112001 353.488,106.888 C353.973336,106.663999 354.503997,106.552 355.08,106.552 C355.688003,106.552 356.231998,106.666666 356.712,106.896 C357.192002,107.125334 357.597332,107.437331 357.928,107.832 C358.258668,108.226669 358.509332,108.690664 358.68,109.224 C358.850668,109.757336 358.936,110.327997 358.936,110.936 L358.936,111.12 C358.936,111.189334 358.930667,111.272 358.92,111.368 L352.36,111.368 Z M361.208,103.32 L362.44,103.32 L362.44,115 L361.208,115 L361.208,103.32 Z M365.416,103.32 L366.648,103.32 L366.648,115 L365.416,115 L365.416,103.32 Z M378.488,114.072 C378.882669,114.072 379.258665,114.000001 379.616,113.856 C379.973335,113.711999 380.282665,113.504001 380.544,113.232 C380.805335,112.959999 381.013333,112.626669 381.168,112.232 C381.322667,111.837331 381.4,111.389336 381.4,110.888 L381.4,110.856 C381.4,110.365331 381.322667,109.922669 381.168,109.528 C381.013333,109.133331 380.802668,108.797335 380.536,108.52 C380.269332,108.242665 379.960002,108.029334 379.608,107.88 C379.255998,107.730666 378.882669,107.656 378.488,107.656 C378.103998,107.656 377.733335,107.733333 377.376,107.888 C377.018665,108.042667 376.698668,108.261332 376.416,108.544 C376.133332,108.826668 375.909334,109.162665 375.744,109.552 C375.578666,109.941335 375.496,110.370664 375.496,110.84 L375.496,110.872 C375.496,111.352002 375.578666,111.789331 375.744,112.184 C375.909334,112.578669 376.133332,112.914665 376.416,113.192 C376.698668,113.469335 377.018665,113.685333 377.376,113.84 C377.733335,113.994667 378.103998,114.072 378.488,114.072 L378.488,114.072 Z M374.312,106.728 L375.544,106.728 L375.544,108.392 C375.714668,108.146665 375.903999,107.912001 376.112,107.688 C376.320001,107.463999 376.551999,107.269334 376.808,107.104 C377.064001,106.938666 377.349332,106.805334 377.664,106.704 C377.978668,106.602666 378.327998,106.552 378.712,106.552 C379.202669,106.552 379.685331,106.647999 380.16,106.84 C380.634669,107.032001 381.058665,107.311998 381.432,107.68 C381.805335,108.048002 382.103999,108.495997 382.328,109.024 C382.552001,109.552003 382.664,110.15733 382.664,110.84 L382.664,110.872 C382.664,111.544003 382.552001,112.146664 382.328,112.68 C382.103999,113.213336 381.808002,113.663998 381.44,114.032 C381.071998,114.400002 380.650669,114.682666 380.176,114.88 C379.701331,115.077334 379.213336,115.176 378.712,115.176 C378.327998,115.176 377.976002,115.128 377.656,115.032 C377.335998,114.936 377.048001,114.808001 376.792,114.648 C376.535999,114.487999 376.304001,114.301334 376.096,114.088 C375.887999,113.874666 375.704001,113.650668 375.544,113.416 L375.544,117.56 L374.312,117.56 L374.312,106.728 Z M384.936,106.728 L386.168,106.728 L386.168,108.888 C386.317334,108.546665 386.503999,108.232001 386.728,107.944 C386.952001,107.655999 387.207999,107.408001 387.496,107.2 C387.784001,106.991999 388.098665,106.834667 388.44,106.728 C388.781335,106.621333 389.149331,106.573333 389.544,106.584 L389.544,107.912 L389.448,107.912 C388.999998,107.912 388.576002,107.991999 388.176,108.152 C387.775998,108.312001 387.426668,108.551998 387.128,108.872 C386.829332,109.192002 386.594668,109.589331 386.424,110.064 C386.253332,110.538669 386.168,111.08533 386.168,111.704 L386.168,115 L384.936,115 L384.936,106.728 Z M397.48,110.376 C397.448,110.002665 397.368001,109.648002 397.24,109.312 C397.111999,108.975998 396.938668,108.680001 396.72,108.424 C396.501332,108.167999 396.234668,107.965334 395.92,107.816 C395.605332,107.666666 395.245335,107.592 394.84,107.592 C394.487998,107.592 394.157335,107.661333 393.848,107.8 C393.538665,107.938667 393.266668,108.133332 393.032,108.384 C392.797332,108.634668 392.602667,108.930665 392.448,109.272 C392.293333,109.613335 392.194667,109.981331 392.152,110.376 L397.48,110.376 Z M392.152,111.368 C392.194667,111.805336 392.301332,112.194665 392.472,112.536 C392.642668,112.877335 392.861332,113.165332 393.128,113.4 C393.394668,113.634668 393.693332,113.813333 394.024,113.936 C394.354668,114.058667 394.701332,114.12 395.064,114.12 C395.640003,114.12 396.133331,114.013334 396.544,113.8 C396.954669,113.586666 397.330665,113.304002 397.672,112.952 L398.44,113.64 C398.023998,114.109336 397.549336,114.485332 397.016,114.768 C396.482664,115.050668 395.821337,115.192 395.032,115.192 C394.466664,115.192 393.933336,115.088001 393.432,114.88 C392.930664,114.671999 392.493335,114.378669 392.12,114 C391.746665,113.621331 391.450668,113.165336 391.232,112.632 C391.013332,112.098664 390.904,111.512003 390.904,110.872 C390.904,110.274664 391.002666,109.712003 391.2,109.184 C391.397334,108.655997 391.671998,108.197335 392.024,107.808 C392.376002,107.418665 392.794664,107.112001 393.28,106.888 C393.765336,106.663999 394.295997,106.552 394.872,106.552 C395.480003,106.552 396.023998,106.666666 396.504,106.896 C396.984002,107.125334 397.389332,107.437331 397.72,107.832 C398.050668,108.226669 398.301332,108.690664 398.472,109.224 C398.642668,109.757336 398.728,110.327997 398.728,110.936 L398.728,111.12 C398.728,111.189334 398.722667,111.272 398.712,111.368 L392.152,111.368 Z M400.552,109.544 L405,109.544 L405,110.84 L400.552,110.84 L400.552,109.544 Z M411.224,114.088 C411.672002,114.088 412.082665,114.002668 412.456,113.832 C412.829335,113.661332 413.149332,113.432001 413.416,113.144 C413.682668,112.855999 413.890666,112.520002 414.04,112.136 C414.189334,111.751998 414.264,111.341336 414.264,110.904 L414.264,110.872 C414.264,110.423998 414.186667,110.005335 414.032,109.616 C413.877333,109.226665 413.661335,108.885335 413.384,108.592 C413.106665,108.298665 412.781335,108.066668 412.408,107.896 C412.034665,107.725332 411.629336,107.64 411.192,107.64 C410.743998,107.64 410.333335,107.725332 409.96,107.896 C409.586665,108.066668 409.269335,108.295999 409.008,108.584 C408.746665,108.872001 408.541334,109.210665 408.392,109.6 C408.242666,109.989335 408.168,110.402664 408.168,110.84 L408.168,110.872 C408.168,111.320002 408.245333,111.738665 408.4,112.128 C408.554667,112.517335 408.767999,112.855999 409.04,113.144 C409.312001,113.432001 409.634665,113.661332 410.008,113.832 C410.381335,114.002668 410.786664,114.088 411.224,114.088 L411.224,114.088 Z M411.192,115.192 C410.57333,115.192 410.002669,115.077334 409.48,114.848 C408.957331,114.618666 408.504002,114.309335 408.12,113.92 C407.735998,113.530665 407.437334,113.077336 407.224,112.56 C407.010666,112.042664 406.904,111.49067 406.904,110.904 L406.904,110.872 C406.904,110.28533 407.010666,109.730669 407.224,109.208 C407.437334,108.685331 407.735998,108.226669 408.12,107.832 C408.504002,107.437331 408.959997,107.125334 409.488,106.896 C410.016003,106.666666 410.594664,106.552 411.224,106.552 C411.84267,106.552 412.415997,106.666666 412.944,106.896 C413.472003,107.125334 413.927998,107.434665 414.312,107.824 C414.696002,108.213335 414.994666,108.666664 415.208,109.184 C415.421334,109.701336 415.528,110.25333 415.528,110.84 L415.528,110.872 C415.528,111.45867 415.418668,112.013331 415.2,112.536 C414.981332,113.058669 414.680002,113.517331 414.296,113.912 C413.911998,114.306669 413.453336,114.618666 412.92,114.848 C412.386664,115.077334 411.81067,115.192 411.192,115.192 L411.192,115.192 Z M417.048,106.728 L418.36,106.728 L420.536,113.368 L422.76,106.696 L423.784,106.696 L426.024,113.368 L428.2,106.728 L429.48,106.728 L426.568,115.064 L425.496,115.064 L423.272,108.536 L421.032,115.064 L419.944,115.064 L417.048,106.728 Z M431.528,106.728 L432.76,106.728 L432.76,108.168 C433.037335,107.719998 433.399998,107.338668 433.848,107.024 C434.296002,106.709332 434.87733,106.552 435.592,106.552 C436.093336,106.552 436.538665,106.631999 436.928,106.792 C437.317335,106.952001 437.647999,107.178665 437.92,107.472 C438.192001,107.765335 438.399999,108.114665 438.544,108.52 C438.688001,108.925335 438.76,109.373331 438.76,109.864 L438.76,115 L437.528,115 L437.528,110.168 C437.528,109.399996 437.330669,108.792002 436.936,108.344 C436.541331,107.895998 435.976004,107.672 435.24,107.672 C434.887998,107.672 434.560002,107.733333 434.256,107.856 C433.951998,107.978667 433.688001,108.154666 433.464,108.384 C433.239999,108.613334 433.066667,108.887998 432.944,109.208 C432.821333,109.528002 432.76,109.879998 432.76,110.264 L432.76,115 L431.528,115 L431.528,106.728 Z M447.448,110.376 C447.416,110.002665 447.336001,109.648002 447.208,109.312 C447.079999,108.975998 446.906668,108.680001 446.688,108.424 C446.469332,108.167999 446.202668,107.965334 445.888,107.816 C445.573332,107.666666 445.213335,107.592 444.808,107.592 C444.455998,107.592 444.125335,107.661333 443.816,107.8 C443.506665,107.938667 443.234668,108.133332 443,108.384 C442.765332,108.634668 442.570667,108.930665 442.416,109.272 C442.261333,109.613335 442.162667,109.981331 442.12,110.376 L447.448,110.376 Z M442.12,111.368 C442.162667,111.805336 442.269332,112.194665 442.44,112.536 C442.610668,112.877335 442.829332,113.165332 443.096,113.4 C443.362668,113.634668 443.661332,113.813333 443.992,113.936 C444.322668,114.058667 444.669332,114.12 445.032,114.12 C445.608003,114.12 446.101331,114.013334 446.512,113.8 C446.922669,113.586666 447.298665,113.304002 447.64,112.952 L448.408,113.64 C447.991998,114.109336 447.517336,114.485332 446.984,114.768 C446.450664,115.050668 445.789337,115.192 445,115.192 C444.434664,115.192 443.901336,115.088001 443.4,114.88 C442.898664,114.671999 442.461335,114.378669 442.088,114 C441.714665,113.621331 441.418668,113.165336 441.2,112.632 C440.981332,112.098664 440.872,111.512003 440.872,110.872 C440.872,110.274664 440.970666,109.712003 441.168,109.184 C441.365334,108.655997 441.639998,108.197335 441.992,107.808 C442.344002,107.418665 442.762664,107.112001 443.248,106.888 C443.733336,106.663999 444.263997,106.552 444.84,106.552 C445.448003,106.552 445.991998,106.666666 446.472,106.896 C446.952002,107.125334 447.357332,107.437331 447.688,107.832 C448.018668,108.226669 448.269332,108.690664 448.44,109.224 C448.610668,109.757336 448.696,110.327997 448.696,110.936 L448.696,111.12 C448.696,111.189334 448.690667,111.272 448.68,111.368 L442.12,111.368 Z M454.552,114.072 C454.936002,114.072 455.306665,113.994667 455.664,113.84 C456.021335,113.685333 456.341332,113.466668 456.624,113.184 C456.906668,112.901332 457.130666,112.565335 457.296,112.176 C457.461334,111.786665 457.544,111.352002 457.544,110.872 L457.544,110.84 C457.544,110.359998 457.461334,109.925335 457.296,109.536 C457.130666,109.146665 456.906668,108.813335 456.624,108.536 C456.341332,108.258665 456.021335,108.042667 455.664,107.888 C455.306665,107.733333 454.936002,107.656 454.552,107.656 C454.146665,107.656 453.768002,107.727999 453.416,107.872 C453.063998,108.016001 452.757335,108.223999 452.496,108.496 C452.234665,108.768001 452.026667,109.101331 451.872,109.496 C451.717333,109.890669 451.64,110.338664 451.64,110.84 L451.64,110.872 C451.64,111.362669 451.717333,111.805331 451.872,112.2 C452.026667,112.594669 452.237332,112.930665 452.504,113.208 C452.770668,113.485335 453.079998,113.698666 453.432,113.848 C453.784002,113.997334 454.157331,114.072 454.552,114.072 L454.552,114.072 Z M454.328,115.176 C453.826664,115.176 453.341336,115.080001 452.872,114.888 C452.402664,114.695999 451.981335,114.416002 451.608,114.048 C451.234665,113.679998 450.936001,113.232003 450.712,112.704 C450.487999,112.175997 450.376,111.57067 450.376,110.888 L450.376,110.856 C450.376,110.183997 450.487999,109.581336 450.712,109.048 C450.936001,108.514664 451.234665,108.064002 451.608,107.696 C451.981335,107.327998 452.402664,107.045334 452.872,106.848 C453.341336,106.650666 453.826664,106.552 454.328,106.552 C454.712002,106.552 455.063998,106.6 455.384,106.696 C455.704002,106.792 455.991999,106.919999 456.248,107.08 C456.504001,107.240001 456.735999,107.426666 456.944,107.64 C457.152001,107.853334 457.335999,108.077332 457.496,108.312 L457.496,103.32 L458.728,103.32 L458.728,115 L457.496,115 L457.496,113.336 C457.325332,113.581335 457.136001,113.815999 456.928,114.04 C456.719999,114.264001 456.488001,114.461332 456.232,114.632 C455.975999,114.802668 455.690668,114.936 455.376,115.032 C455.061332,115.128 454.712002,115.176 454.328,115.176 L454.328,115.176 Z M466.744,107.816 L465.608,107.816 L465.608,106.744 L466.744,106.744 L466.744,106.024 C466.744,105.085329 466.983998,104.376002 467.464,103.896 C467.890669,103.469331 468.482663,103.256 469.24,103.256 C469.528001,103.256 469.775999,103.272 469.984,103.304 C470.192001,103.336 470.397332,103.389333 470.6,103.464 L470.6,104.536 C470.375999,104.472 470.173334,104.421334 469.992,104.384 C469.810666,104.346666 469.613334,104.328 469.4,104.328 C468.439995,104.328 467.96,104.914661 467.96,106.088 L467.96,106.76 L470.584,106.76 L470.584,107.816 L467.976,107.816 L467.976,115 L466.744,115 L466.744,107.816 Z M474.856,114.184 C475.240002,114.184 475.597332,114.130667 475.928,114.024 C476.258668,113.917333 476.549332,113.765334 476.8,113.568 C477.050668,113.370666 477.247999,113.136001 477.392,112.864 C477.536001,112.591999 477.608,112.290668 477.608,111.96 L477.608,111.192 C477.298665,111.106666 476.946669,111.026667 476.552,110.952 C476.157331,110.877333 475.704003,110.84 475.192,110.84 C474.423996,110.84 473.829335,110.991998 473.408,111.296 C472.986665,111.600002 472.776,112.002664 472.776,112.504 L472.776,112.536 C472.776,112.792001 472.831999,113.023999 472.944,113.232 C473.056001,113.440001 473.207999,113.613333 473.4,113.752 C473.592001,113.890667 473.813332,113.997333 474.064,114.072 C474.314668,114.146667 474.578665,114.184 474.856,114.184 L474.856,114.184 Z M474.616,115.176 C474.231998,115.176 473.853335,115.122667 473.48,115.016 C473.106665,114.909333 472.776001,114.746668 472.488,114.528 C472.199999,114.309332 471.968001,114.040002 471.792,113.72 C471.615999,113.399998 471.528,113.026669 471.528,112.6 L471.528,112.568 C471.528,112.119998 471.613332,111.728002 471.784,111.392 C471.954668,111.055998 472.197332,110.776001 472.512,110.552 C472.826668,110.327999 473.199998,110.157334 473.632,110.04 C474.064002,109.922666 474.541331,109.864 475.064,109.864 C475.597336,109.864 476.058665,109.896 476.448,109.96 C476.837335,110.024 477.218665,110.109333 477.592,110.216 L477.592,109.96 C477.592,109.223996 477.378669,108.666669 476.952,108.288 C476.525331,107.909331 475.922671,107.72 475.144,107.72 C474.653331,107.72 474.208002,107.773333 473.808,107.88 C473.407998,107.986667 473.016002,108.130666 472.632,108.312 L472.264,107.304 C472.722669,107.090666 473.186664,106.920001 473.656,106.792 C474.125336,106.663999 474.663997,106.6 475.272,106.6 C476.445339,106.6 477.335997,106.903997 477.944,107.512 C478.520003,108.088003 478.808,108.898661 478.808,109.944 L478.808,115 L477.592,115 L477.592,113.768 C477.303999,114.141335 476.917336,114.469332 476.432,114.752 C475.946664,115.034668 475.341337,115.176 474.616,115.176 L474.616,115.176 Z M484.152,115.16 C483.554664,115.16 482.952003,115.050668 482.344,114.832 C481.735997,114.613332 481.197336,114.317335 480.728,113.944 L481.352,113.064 C481.800002,113.405335 482.266664,113.666666 482.752,113.848 C483.237336,114.029334 483.725331,114.12 484.216,114.12 C484.717336,114.12 485.127998,114.002668 485.448,113.768 C485.768002,113.533332 485.928,113.213335 485.928,112.808 L485.928,112.776 C485.928,112.573332 485.872001,112.397334 485.76,112.248 C485.647999,112.098666 485.496001,111.968001 485.304,111.856 C485.111999,111.743999 484.890668,111.645334 484.64,111.56 C484.389332,111.474666 484.130668,111.394667 483.864,111.32 C483.543998,111.224 483.221335,111.120001 482.896,111.008 C482.570665,110.895999 482.277335,110.754668 482.016,110.584 C481.754665,110.413332 481.541334,110.200001 481.376,109.944 C481.210666,109.687999 481.128,109.368002 481.128,108.984 L481.128,108.952 C481.128,108.599998 481.197333,108.277335 481.336,107.984 C481.474667,107.690665 481.669332,107.440001 481.92,107.232 C482.170668,107.023999 482.469332,106.864001 482.816,106.752 C483.162668,106.639999 483.538665,106.584 483.944,106.584 C484.456003,106.584 484.973331,106.666666 485.496,106.832 C486.018669,106.997334 486.493331,107.218665 486.92,107.496 L486.36,108.424 C485.975998,108.178665 485.573335,107.984001 485.152,107.84 C484.730665,107.695999 484.317335,107.624 483.912,107.624 C483.421331,107.624 483.032001,107.738666 482.744,107.968 C482.455999,108.197334 482.312,108.482665 482.312,108.824 L482.312,108.856 C482.312,109.048001 482.370666,109.215999 482.488,109.36 C482.605334,109.504001 482.762666,109.629333 482.96,109.736 C483.157334,109.842667 483.383999,109.938666 483.64,110.024 C483.896001,110.109334 484.162665,110.194666 484.44,110.28 C484.760002,110.376 485.077332,110.482666 485.392,110.6 C485.706668,110.717334 485.991999,110.866666 486.248,111.048 C486.504001,111.229334 486.709333,111.447999 486.864,111.704 C487.018667,111.960001 487.096,112.274665 487.096,112.648 L487.096,112.68 C487.096,113.074669 487.018667,113.423998 486.864,113.728 C486.709333,114.032002 486.501335,114.290666 486.24,114.504 C485.978665,114.717334 485.669335,114.879999 485.312,114.992 C484.954665,115.104001 484.568002,115.16 484.152,115.16 L484.152,115.16 Z M489.384,103.32 L490.616,103.32 L490.616,108.168 C490.893335,107.719998 491.255998,107.338668 491.704,107.024 C492.152002,106.709332 492.73333,106.552 493.448,106.552 C493.949336,106.552 494.394665,106.631999 494.784,106.792 C495.173335,106.952001 495.503999,107.178665 495.776,107.472 C496.048001,107.765335 496.255999,108.114665 496.4,108.52 C496.544001,108.925335 496.616,109.373331 496.616,109.864 L496.616,115 L495.384,115 L495.384,110.168 C495.384,109.399996 495.186669,108.792002 494.792,108.344 C494.397331,107.895998 493.832004,107.672 493.096,107.672 C492.743998,107.672 492.416002,107.733333 492.112,107.856 C491.807998,107.978667 491.544001,108.154666 491.32,108.384 C491.095999,108.613334 490.922667,108.887998 490.8,109.208 C490.677333,109.528002 490.616,109.879998 490.616,110.264 L490.616,115 L489.384,115 L489.384,103.32 Z M499.352,106.728 L500.584,106.728 L500.584,115 L499.352,115 L499.352,106.728 Z M499.272,103.56 L500.68,103.56 L500.68,104.92 L499.272,104.92 L499.272,103.56 Z M507.256,114.088 C507.704002,114.088 508.114665,114.002668 508.488,113.832 C508.861335,113.661332 509.181332,113.432001 509.448,113.144 C509.714668,112.855999 509.922666,112.520002 510.072,112.136 C510.221334,111.751998 510.296,111.341336 510.296,110.904 L510.296,110.872 C510.296,110.423998 510.218667,110.005335 510.064,109.616 C509.909333,109.226665 509.693335,108.885335 509.416,108.592 C509.138665,108.298665 508.813335,108.066668 508.44,107.896 C508.066665,107.725332 507.661336,107.64 507.224,107.64 C506.775998,107.64 506.365335,107.725332 505.992,107.896 C505.618665,108.066668 505.301335,108.295999 505.04,108.584 C504.778665,108.872001 504.573334,109.210665 504.424,109.6 C504.274666,109.989335 504.2,110.402664 504.2,110.84 L504.2,110.872 C504.2,111.320002 504.277333,111.738665 504.432,112.128 C504.586667,112.517335 504.799999,112.855999 505.072,113.144 C505.344001,113.432001 505.666665,113.661332 506.04,113.832 C506.413335,114.002668 506.818664,114.088 507.256,114.088 L507.256,114.088 Z M507.224,115.192 C506.60533,115.192 506.034669,115.077334 505.512,114.848 C504.989331,114.618666 504.536002,114.309335 504.152,113.92 C503.767998,113.530665 503.469334,113.077336 503.256,112.56 C503.042666,112.042664 502.936,111.49067 502.936,110.904 L502.936,110.872 C502.936,110.28533 503.042666,109.730669 503.256,109.208 C503.469334,108.685331 503.767998,108.226669 504.152,107.832 C504.536002,107.437331 504.991997,107.125334 505.52,106.896 C506.048003,106.666666 506.626664,106.552 507.256,106.552 C507.87467,106.552 508.447997,106.666666 508.976,106.896 C509.504003,107.125334 509.959998,107.434665 510.344,107.824 C510.728002,108.213335 511.026666,108.666664 511.24,109.184 C511.453334,109.701336 511.56,110.25333 511.56,110.84 L511.56,110.872 C511.56,111.45867 511.450668,112.013331 511.232,112.536 C511.013332,113.058669 510.712002,113.517331 510.328,113.912 C509.943998,114.306669 509.485336,114.618666 508.952,114.848 C508.418664,115.077334 507.84267,115.192 507.224,115.192 L507.224,115.192 Z M513.784,106.728 L515.016,106.728 L515.016,108.168 C515.293335,107.719998 515.655998,107.338668 516.104,107.024 C516.552002,106.709332 517.13333,106.552 517.848,106.552 C518.349336,106.552 518.794665,106.631999 519.184,106.792 C519.573335,106.952001 519.903999,107.178665 520.176,107.472 C520.448001,107.765335 520.655999,108.114665 520.8,108.52 C520.944001,108.925335 521.016,109.373331 521.016,109.864 L521.016,115 L519.784,115 L519.784,110.168 C519.784,109.399996 519.586669,108.792002 519.192,108.344 C518.797331,107.895998 518.232004,107.672 517.496,107.672 C517.143998,107.672 516.816002,107.733333 516.512,107.856 C516.207998,107.978667 515.944001,108.154666 515.72,108.384 C515.495999,108.613334 515.322667,108.887998 515.2,109.208 C515.077333,109.528002 515.016,109.879998 515.016,110.264 L515.016,115 L513.784,115 L513.784,106.728 Z" id="Marketplace-for-fash" fill="#000000"></path>
            <path d="M615.622782,98.939697 L611.097861,94.4147761 L612.634478,92.8781592 L619.878159,100.121841 L612.878159,107.121841 L611.341542,105.585224 L615.759683,101.167083 L602,101.167083 L602,98.939697 L615.622782,98.939697 Z" id="Combined-Shape-Copy" fill="#000000"></path>
            <rect id="Rectangle-7" fill="#F9E900" transform="translate(150.513433, 100.436782) rotate(45.000000) translate(-150.513433, -100.436782) " x="80.5134327" y="99" width="140" height="2.87356322"></rect>
            <rect id="Rectangle-5" fill="#FFFFFF" x="80" y="75" width="143" height="50"></rect>
            <path d="M89.184,115.544 C89.184,115.784 89.376,116 89.64,116 L91.848,116 C92.088,116 92.304,115.784 92.304,115.544 L92.304,109.904 L95.304,109.904 C98.232,109.904 100.656,107.48 100.656,104.504 C100.656,101.6 98.232,99.2 95.28,99.2 L89.64,99.2 C89.376,99.2 89.184,99.416 89.184,99.656 L89.184,115.544 Z M92.304,106.976 L92.304,102.152 L95.088,102.152 C96.432,102.152 97.56,103.16 97.56,104.48 C97.56,105.896 96.432,106.976 95.088,106.976 L92.304,106.976 Z M103.392,115.544 C103.392,115.784 103.584,116 103.848,116 L106.056,116 C106.296,116 106.512,115.784 106.512,115.544 L106.512,109.424 L109.176,109.424 L112.368,115.784 C112.416,115.88 112.536,116 112.752,116 L115.272,116 C115.68,116 115.848,115.616 115.68,115.304 L112.392,109.208 C114.48,108.368 115.944,106.568 115.944,104.36 C115.944,101.504 113.592,99.2 110.712,99.2 L103.848,99.2 C103.584,99.2 103.392,99.416 103.392,99.656 L103.392,115.544 Z M106.536,106.856 L106.536,102.08 L110.448,102.08 C111.72,102.08 112.824,103.136 112.824,104.408 C112.824,105.752 111.72,106.856 110.448,106.856 L106.536,106.856 Z M119.376,115.544 C119.376,115.784 119.568,116 119.832,116 L129.6,116 C129.864,116 130.056,115.784 130.056,115.544 L130.056,113.576 C130.056,113.336 129.864,113.12 129.6,113.12 L122.496,113.12 L122.496,108.92 L128.424,108.92 C128.664,108.92 128.88,108.728 128.88,108.464 L128.88,106.472 C128.88,106.232 128.664,106.016 128.424,106.016 L122.496,106.016 L122.496,102.08 L129.6,102.08 C129.864,102.08 130.056,101.864 130.056,101.624 L130.056,99.656 C130.056,99.416 129.864,99.2 129.6,99.2 L119.832,99.2 C119.568,99.2 119.376,99.416 119.376,99.656 L119.376,115.544 Z M138.792,115.544 C138.792,115.784 138.984,116 139.248,116 L148.032,116 C148.296,116 148.488,115.784 148.488,115.544 L148.488,113.576 C148.488,113.336 148.296,113.12 148.032,113.12 L141.912,113.12 L141.912,99.656 C141.912,99.416 141.696,99.2 141.456,99.2 L139.248,99.2 C138.984,99.2 138.792,99.416 138.792,99.656 L138.792,115.544 Z M149.712,107.624 C149.712,112.424 153.528,116.24 158.328,116.24 C163.128,116.24 166.968,112.424 166.968,107.624 C166.968,102.824 163.128,98.96 158.328,98.96 C153.528,98.96 149.712,102.824 149.712,107.624 L149.712,107.624 Z M152.832,107.624 C152.832,104.6 155.304,102.08 158.328,102.08 C161.352,102.08 163.848,104.6 163.848,107.624 C163.848,110.648 161.352,113.12 158.328,113.12 C155.304,113.12 152.832,110.648 152.832,107.624 L152.832,107.624 Z M175.344,115.976 C175.416,116.12 175.536,116.24 175.752,116.24 L175.992,116.24 C176.208,116.24 176.328,116.12 176.4,115.976 L183.84,99.824 C183.984,99.512 183.792,99.2 183.432,99.2 L180.984,99.2 C180.768,99.2 180.624,99.344 180.576,99.464 L175.968,109.784 L175.8,109.784 L171.192,99.464 C171.144,99.344 171,99.2 170.784,99.2 L168.336,99.2 C167.976,99.2 167.784,99.512 167.928,99.824 L175.344,115.976 Z M186.024,115.544 C186.024,115.784 186.216,116 186.48,116 L196.248,116 C196.512,116 196.704,115.784 196.704,115.544 L196.704,113.576 C196.704,113.336 196.512,113.12 196.248,113.12 L189.144,113.12 L189.144,108.92 L195.072,108.92 C195.312,108.92 195.528,108.728 195.528,108.464 L195.528,106.472 C195.528,106.232 195.312,106.016 195.072,106.016 L189.144,106.016 L189.144,102.08 L196.248,102.08 C196.512,102.08 196.704,101.864 196.704,101.624 L196.704,99.656 C196.704,99.416 196.512,99.2 196.248,99.2 L186.48,99.2 C186.216,99.2 186.024,99.416 186.024,99.656 L186.024,115.544 Z M200.136,115.544 C200.136,115.784 200.328,116 200.568,116 L206.256,116 C210.888,116 214.68,112.232 214.68,107.576 C214.68,102.968 210.888,99.2 206.256,99.2 L200.568,99.2 C200.328,99.2 200.136,99.416 200.136,99.656 L200.136,115.544 Z M203.232,113.072 L203.232,102.104 L205.968,102.104 C209.088,102.104 211.368,104.456 211.368,107.576 C211.368,110.72 209.088,113.072 205.968,113.072 L203.232,113.072 Z" id="PRE-LOVED" fill="#000000"></path>
            <path d="M119.882,91.006 C120.064,91.174 121.184,92.14 122.836,92.14 C124.474,92.14 125.86,91.076 125.86,89.62 C125.86,87.996 124.642,87.282 122.752,86.512 C121.576,86.022 120.862,85.476 120.862,84.538 C120.862,83.95 121.31,82.998 122.794,82.998 C123.648,82.998 124.53,83.586 124.628,83.642 C124.852,83.768 124.992,83.712 125.118,83.516 C125.174,83.432 125.23,83.334 125.286,83.25 C125.454,82.984 125.286,82.816 125.202,82.774 C125.202,82.774 124.18,82.06 122.808,82.06 C120.582,82.06 119.826,83.6 119.826,84.552 C119.826,86.148 120.75,86.778 122.29,87.45 C123.9,88.122 124.74,88.696 124.74,89.662 C124.74,90.488 123.998,91.202 122.864,91.202 C121.618,91.202 120.596,90.222 120.498,90.138 C120.302,89.97 120.148,90.082 120.008,90.264 C119.938,90.348 119.868,90.446 119.798,90.53 C119.63,90.796 119.77,90.908 119.882,91.006 L119.882,91.006 Z M129.89,91.734 C129.89,91.874 130.016,92 130.156,92 L130.702,92 C130.856,92 130.968,91.874 130.968,91.734 L130.968,87.492 L136.652,87.492 L136.652,91.734 C136.652,91.874 136.764,92 136.918,92 L137.464,92 C137.604,92 137.73,91.874 137.73,91.734 L137.73,82.466 C137.73,82.326 137.604,82.2 137.464,82.2 L136.918,82.2 C136.764,82.2 136.652,82.326 136.652,82.466 L136.652,86.554 L130.968,86.554 L130.968,82.466 C130.968,82.326 130.856,82.2 130.702,82.2 L130.156,82.2 C130.016,82.2 129.89,82.326 129.89,82.466 L129.89,91.734 Z M141.872,87.114 C141.872,89.914 144.098,92.14 146.898,92.14 C149.698,92.14 151.938,89.914 151.938,87.114 C151.938,84.314 149.698,82.06 146.898,82.06 C144.098,82.06 141.872,84.314 141.872,87.114 L141.872,87.114 Z M142.852,87.114 C142.852,84.888 144.672,83.04 146.898,83.04 C149.124,83.04 150.958,84.888 150.958,87.114 C150.958,89.34 149.124,91.16 146.898,91.16 C144.672,91.16 142.852,89.34 142.852,87.114 L142.852,87.114 Z M156.08,91.734 C156.08,91.874 156.192,92 156.346,92 L156.878,92 C157.018,92 157.144,91.874 157.144,91.734 L157.144,88.444 L159.454,88.444 C161.162,88.444 162.576,87.03 162.576,85.294 C162.576,83.6 161.162,82.2 159.44,82.2 L156.346,82.2 C156.192,82.2 156.08,82.326 156.08,82.466 L156.08,91.734 Z M157.144,87.408 L157.144,83.264 L159.37,83.264 C160.518,83.264 161.498,84.132 161.498,85.266 C161.498,86.47 160.518,87.408 159.37,87.408 L157.144,87.408 Z" id="SHOP" fill="#4A4A4A"></path>
        </g>
    </g>
</svg>